<?xml version="1.0" encoding="UTF-8"?>
<svg width="50px" height="50px" viewBox="0 0 50 50" version="1.1" xmlns="http://www.w3.org/2000/svg" xmlns:xlink="http://www.w3.org/1999/xlink">
    <!-- Generator: Sketch 52.6 (67491) - http://www.bohemiancoding.com/sketch -->
    <title>call</title>
    <desc>Created with Sketch.</desc>
    <g id="Page-1" stroke="none" stroke-width="1" fill="none" fill-rule="evenodd">
        <g id="Sample-One" transform="translate(-212.000000, -2900.000000)" fill="#FFFFFF" fill-rule="nonzero">
            <path d="M235.981138,2947.19086 C239.727198,2950.93638 245.800494,2950.93638 249.546047,2947.19086 L253.11083,2943.62612 L254.721565,2945.23684 C255.126654,2945.64192 255.783404,2945.64192 256.188493,2945.23684 L261.696183,2939.7292 C262.101272,2939.32412 262.101272,2938.66737 261.696183,2938.26229 L249.144503,2925.70972 C248.739414,2925.30514 248.082663,2925.30514 247.678081,2925.70972 L242.169884,2931.21736 C241.765302,2931.62244 241.765302,2932.27918 242.169884,2932.68427 L243.176024,2933.68989 L241.432622,2935.43328 C241.147035,2935.72443 240.75663,2935.889 240.349009,2935.89052 C239.940882,2935.89203 239.549972,2935.73 239.262358,2935.44037 L226.551174,2922.72982 C226.526869,2922.70602 226.503576,2922.68171 226.481296,2922.65639 C225.9562,2922.04978 225.990126,2921.14036 226.559276,2920.57476 L228.30926,2918.8248 L229.314893,2919.83042 C229.719982,2920.23551 230.376733,2920.23551 230.781822,2919.83042 L236.289512,2914.32279 C236.694601,2913.9177 236.694601,2913.26096 236.289512,2912.85587 L223.737831,2900.30381 C223.332743,2899.89873 222.675992,2899.89873 222.27141,2900.30381 L216.763213,2905.81195 C216.35863,2906.21704 216.35863,2906.87378 216.763213,2907.27836 L218.373948,2908.88908 L214.809165,2912.45383 C211.063612,2916.19985 211.063612,2922.27308 214.809165,2926.0191 L235.981138,2947.19086 Z M248.427106,2928.00926 L259.453704,2939.03572 L255.434005,2943.05556 L244.407407,2932.02909 L248.427106,2928.00926 Z M222.963774,2902.5463 L233.990741,2913.57276 L229.970907,2917.59259 L218.944444,2906.56663 L222.963774,2902.5463 Z M216.280683,2913.97474 L219.838695,2910.41667 L226.827862,2917.40545 L225.088783,2919.14506 C223.750486,2920.48641 223.675181,2922.63339 224.915937,2924.06521 C224.971025,2924.12788 225.029146,2924.18903 225.080697,2924.23907 L237.767231,2936.92581 C239.173758,2938.32175 241.443506,2938.31821 242.845989,2936.91874 L244.59366,2935.17154 L251.583333,2942.16083 L248.024816,2945.7189 C245.094511,2948.64926 240.343252,2948.64926 237.412946,2945.7189 L216.280683,2924.58628 C213.350883,2921.65593 213.350883,2916.90509 216.280683,2913.97474 Z" id="call"></path>
        </g>
    </g>
</svg>