<?xml version="1.0" encoding="UTF-8"?>
<svg width="18px" height="18px" viewBox="0 0 18 18" version="1.1" xmlns="http://www.w3.org/2000/svg" xmlns:xlink="http://www.w3.org/1999/xlink">
    <!-- Generator: Sketch 52.4 (67378) - http://www.bohemiancoding.com/sketch -->
    <title>cars</title>
    <desc>Created with Sketch.</desc>
    <g id="Symbols" stroke="none" stroke-width="1" fill="none" fill-rule="evenodd">
        <g id="Accomodation" transform="translate(-352.000000, -2.000000)" fill-rule="nonzero">
            <g id="Accomo">
                <g id="cars" transform="translate(352.000000, 2.000000)">
                    <path d="M16.1171018,10.0910771 L15.2739424,7.74223264 C15.0408871,7.09983435 14.4470427,6.67439699 13.7837652,6.67439699 L12.8146299,6.67439699 C13.0706832,6.0150297 13.1300091,5.3859642 13.0224901,4.81356311 C13.0224901,4.81280553 13.0221972,4.80962385 13.0220507,4.80886632 C12.8099425,3.72118298 12.0441265,3.01727205 11.0711826,3.01727205 C10.6034606,3.01727205 10.1036587,3.18817423 9.61498959,3.51482766 C9.12046109,3.17317483 8.62710446,3 8.14575947,3 C7.16666336,3 6.40377699,3.71512262 6.20221561,4.81432064 C6.09557558,5.38869135 6.15343659,6.0150297 6.40509537,6.67439699 L5.42043286,6.67439699 C4.75700883,6.67439699 4.16331098,7.09983435 3.93025563,7.74223264 L3.10159814,10.0536544 L2.6341691,10.5087875 C2.22884908,10.8686215 1.9969656,11.3945093 2.00004178,11.9470627 L2.00004178,16.6338431 C1.99725858,16.9945861 2.13363478,17.3415418 2.37884824,17.597895 C2.62420821,17.8542483 2.95819073,17.9989394 3.3068216,18 L4.15774458,18 C4.88855105,17.9998485 5.48254189,17.3898731 5.48752235,16.6338431 L5.48752235,15.9443255 L13.5124776,15.9443255 L13.5124776,16.6338431 C13.5176045,17.3898731 14.1114489,17.9998485 14.8424019,18 L15.6931784,18 C16.0418092,17.9990909 16.3757917,17.8542483 16.6211517,17.597895 C16.8663652,17.3415418 17.0027414,16.9945861 16.9999582,16.6338431 L16.9999582,11.8261585 C17.001716,11.3096642 16.7995687,10.8146843 16.4402445,10.4560624 L16.1171018,10.0910771 Z M6.79151898,4.92583129 C6.9391744,4.12056079 7.45816566,3.62027795 8.14575947,3.62027795 C8.54653849,3.62027795 8.99155556,3.80027072 9.43305699,4.14086301 C9.5382322,4.22207185 9.68237202,4.22313239 9.78857259,4.14328716 C10.2300741,3.8119369 10.6736262,3.63664096 11.0710362,3.63664096 C11.7558468,3.63664096 12.2779142,4.13146944 12.4336262,4.92825543 C12.760724,6.67454849 11.2575097,8.1541857 9.6119134,8.85506645 C7.33629134,7.90813503 6.55480154,6.20214336 6.79151898,4.92583129 Z M4.49289897,7.96510243 C4.63733174,7.56405802 5.00661682,7.29725063 5.42043286,7.29497798 L6.71564051,7.29497798 C7.22760052,8.10949053 8.10606242,8.9093067 9.42251017,9.44958789 C9.42778358,9.45170903 9.43305699,9.45140599 9.43847687,9.45337564 C9.55097624,9.49534363 9.67431542,9.4947376 9.78637533,9.45155749 C9.79252766,9.44958789 9.798387,9.45155749 9.80439282,9.44913335 C11.112491,8.9006707 11.9877303,8.10949053 12.5007157,7.29497798 L13.7837652,7.29497798 C14.1975812,7.29725063 14.5668663,7.56405802 14.7112991,7.96510243 L15.4151526,9.93244717 L3.78904548,9.93244717 L4.49289897,7.96510243 Z M4.88752569,16.6338431 C4.88283822,17.0471597 4.55735173,17.379722 4.15759811,17.379419 L3.3068216,17.379419 C3.11712538,17.3786615 2.93577872,17.2992707 2.80291816,17.1592764 C2.67020403,17.0191306 2.59710873,16.8300473 2.60003844,16.6338431 L2.60003844,15.71888 C2.80745916,15.8678134 3.05443042,15.9465981 3.30696807,15.9443255 L4.88752569,15.9443255 L4.88752569,16.6338431 Z M15.6931784,17.379419 L14.8424019,17.379419 C14.4426482,17.379722 14.1171618,17.0471597 14.1124743,16.6338431 L14.1124743,15.9443255 L15.6931784,15.9443255 C15.9455695,15.9465981 16.1925408,15.8678134 16.3999616,15.71888 L16.3999616,16.6338431 C16.4028912,16.8300473 16.3297959,17.0191306 16.1970818,17.1592764 C16.0642212,17.2992707 15.8828746,17.3786615 15.6931784,17.379419 Z M16.3999616,14.5751384 C16.4030377,14.7716456 16.3300889,14.9611834 16.1973748,15.1017838 C16.0646607,15.2422327 15.8830211,15.3222294 15.6931784,15.3237445 L3.30696807,15.3237445 C3.11697891,15.3222294 2.93548577,15.2422327 2.80277168,15.1017838 C2.67005756,14.9611834 2.59710873,14.7716456 2.60003844,14.5751384 L2.60003844,11.9470627 C2.59710873,11.573896 2.75369968,11.2184558 3.02777043,10.9757384 C3.03128603,10.9727082 3.03113952,10.9767989 3.03450865,10.9736172 L3.47586361,10.5530282 L15.7002096,10.5530282 L16.0151492,10.8939235 C16.0193973,10.8986202 16.0167606,10.8995293 16.0213015,10.9039231 C16.2650502,11.1442164 16.4020123,11.4778393 16.3999616,11.8261585 L16.3999616,14.5751384 Z" id="Shape" fill="#FFFFFF"></path>
                    <path d="M4.01333164,12 L3.98666836,12 C3.44177672,12 3,12.4477459 3,13 C3,13.5522541 3.44177672,14 3.98666836,14 L4.01333164,14 C4.55822328,14 5,13.5522541 5,13 C5,12.4477459 4.55822328,12 4.01333164,12 Z M4.01333164,13.4754098 L3.98666836,13.4754098 C3.72761736,13.4754098 3.51759652,13.2625512 3.51759652,13 C3.51759652,12.7374488 3.72761736,12.5245902 3.98666836,12.5245902 L4.01333164,12.5245902 C4.27238264,12.5245902 4.48240348,12.7374488 4.48240348,13 C4.48240348,13.2625512 4.27238264,13.4754098 4.01333164,13.4754098 Z" id="Shape" fill="#75C8DB"></path>
                    <path d="M14.0132693,12 L13.9867307,12 C13.4416782,12 13,12.4477459 13,13 C13,13.5522541 13.4416782,14 13.9867307,14 L14.0132693,14 C14.5583218,14 15,13.5522541 15,13 C15,12.4477459 14.5583218,12 14.0132693,12 Z M14.0132693,13.4754098 L13.9867307,13.4754098 C13.7276633,13.4754098 13.5176292,13.2625512 13.5176292,13 C13.5176292,12.7374488 13.7276633,12.5245902 13.9867307,12.5245902 L14.0132693,12.5245902 C14.2723367,12.5245902 14.4823708,12.7374488 14.4823708,13 C14.4823708,13.2625512 14.2723367,13.4754098 14.0132693,13.4754098 Z" id="Shape" fill="#75C8DB"></path>
                    <path d="M12,12.2580645 C12,12.1155494 11.8653371,12 11.6992481,12 L7.30075188,12 C7.13466282,12 7,12.1155494 7,12.2580645 L7,13.7419355 C7,13.8844506 7.13466282,14 7.30075188,14 L11.6992481,14 C11.8653371,14 12,13.8844506 12,13.7419355 L12,12.2580645 Z M11.4360902,13.516129 L7.60150376,13.516129 L7.60150376,12.516129 L11.4360902,12.516129 L11.4360902,13.516129 Z" id="Shape" fill="#75C8DB"></path>
                    <path d="M2.35288744,4.97141747 C2.44786066,5.00952751 2.55202027,5.00952751 2.6469935,4.97141747 C2.65278798,4.96923973 2.65844115,4.96690649 2.66409432,4.96441767 C4.53698894,4.12926306 5.16816513,2.58106163 4.96295513,1.41722731 L4.96253113,1.41489403 C4.80636238,0.562784348 4.24019758,0.0121330162 3.52012532,0.0121330162 C3.19181758,0.0121330162 2.84329978,0.133929603 2.50255507,0.366323168 C2.15785314,0.123041037 1.81272721,0 1.47438512,0 C0.749648973,0 0.18532148,0.556873421 0.0369258001,1.41784952 C-0.168001524,2.59397239 0.463881309,4.14699592 2.33790656,4.96535096 C2.34285305,4.96737316 2.3479409,4.96955085 2.35288744,4.97141747 Z M0.605634507,1.53715728 C0.701314368,0.981994936 1.03414465,0.637137858 1.47438512,0.637137858 C1.73725743,0.637137858 2.03221149,0.765156535 2.32702418,1.00719426 C2.42849857,1.09056972 2.5675665,1.09150301 2.67003016,1.00968308 C2.96088568,0.777289511 3.26276485,0.649426416 3.52026664,0.649426416 C3.95881116,0.649426416 4.29390271,0.990550264 4.39509438,1.53980168 C4.55267645,2.43686563 4.02608386,3.6475209 2.49958717,4.34999027 C0.973090432,3.66167607 0.447204481,2.44604316 0.605634507,1.53715728 Z" id="Shape" fill="#75C8DB"></path>
                    <path d="M17.9623464,1.41489403 C17.8061835,0.562784348 17.2400397,0.0122885575 16.5199942,0.0122885575 C16.1916987,0.0122885575 15.8431938,0.133929603 15.5024618,0.366323168 C15.1577727,0.123041037 14.8129422,0 14.47433,0 C13.7496208,0 13.1853143,0.556873421 13.0369242,1.41784952 C12.8320045,2.59397239 13.4638638,4.14699592 15.3379607,4.96535096 C15.3429071,4.96737316 15.3479947,4.96923973 15.3530824,4.97141747 C15.4480521,5.00952751 15.5522078,5.00952751 15.6471775,4.97141747 C15.6528305,4.96923973 15.6586247,4.96690649 15.6642777,4.96441767 C17.5371027,4.12926306 18.1682554,2.58106163 17.9629117,1.41722731 L17.9623464,1.41489403 Z M15.4993527,4.34999027 C13.973054,3.66167607 13.4471876,2.44604316 13.6056118,1.53715728 C13.7012881,0.981994936 14.034106,0.637137858 14.47433,0.637137858 C14.7373339,0.637137858 15.0321357,0.765156535 15.3269374,1.00719426 C15.428408,1.09056972 15.5674708,1.09150301 15.6699307,1.00968308 C15.9607754,0.777289511 16.2626433,0.649426416 16.5201355,0.649426416 C16.9588051,0.649426416 17.2938841,0.990550264 17.3949308,1.53980168 C17.5523656,2.43702121 17.0257926,3.64767644 15.4993527,4.34999027 Z" id="Shape" fill="#75C8DB"></path>
                </g>
            </g>
        </g>
    </g>
</svg>