<svg width="38" height="41" xmlns="http://www.w3.org/2000/svg"><g fill-rule="nonzero" fill="none"><path d="M.58 39.662l7.252 1.296a.672.672 0 0 0 .692-1.011l-2.792-4.581.864-4.836c.096.006.192.01.288.01a5.205 5.205 0 0 0 5.113-4.283l2.88-16.119a.672.672 0 0 0-.543-.78L5.428 7.767a.672.672 0 0 0-.78.544L1.766 24.428a5.204 5.204 0 0 0 3.509 5.855l-.882 4.936L.28 38.474a.673.673 0 0 0 .3 1.188zM5.853 9.208l7.583 1.355-.89 4.983-7.584-1.356.89-4.982zM3.09 24.665l1.636-9.152 7.583 1.356-1.636 9.152a3.852 3.852 0 1 1-7.584-1.356zm1.788 11.883L6.6 39.372l-4.314-.77 2.592-2.054zM15.609 11.241l7.05 14.78a5.18 5.18 0 0 0 6.3 2.701l2.138 4.48-1.462 5.098a.672.672 0 0 0 .935.792l6.649-3.171a.673.673 0 0 0-.027-1.226l-4.882-2.072-2.137-4.48a5.203 5.203 0 0 0 1.865-6.597l-7.05-14.779a.672.672 0 0 0-.895-.317l-8.167 3.895a.672.672 0 0 0-.317.896zm15.73 25.996l.91-3.18 3.045 1.293-3.956 1.887zm-2.332-9.977a3.852 3.852 0 0 1-5.135-1.819l-4.002-8.39 6.953-3.317 4.002 8.39c.913 1.92.1 4.218-1.818 5.136zM24.065 7.953l2.18 4.568-6.954 3.316-2.18-4.568 6.954-3.316z" fill="#FFF"/><path d="M15.316 8.07l.035.012a.91.91 0 0 0 .655-.015c1.487-.602 2.648-1.496 3.356-2.583.645-.991.89-2.105.69-3.135l-.001-.005C19.766.93 18.728.019 17.407.019c-.565 0-1.16.179-1.742.52C15.077.182 14.485 0 13.902 0c-1.33 0-2.365.923-2.636 2.35-.365 1.902.746 4.408 4.05 5.72zm-2.73-5.468c.15-.788.642-1.258 1.316-1.258.412 0 .88.187 1.355.541a.672.672 0 0 0 .797.005c.468-.34.95-.527 1.352-.527.663 0 1.17.476 1.326 1.244.254 1.315-.603 3.09-3.075 4.15-2.47-1.039-3.326-2.823-3.07-4.155z" fill="#79CEE1"/></g></svg>