<?xml version="1.0" encoding="UTF-8"?>
<svg width="58px" height="58px" viewBox="0 0 58 58" version="1.1" xmlns="http://www.w3.org/2000/svg" xmlns:xlink="http://www.w3.org/1999/xlink">
    <!-- Generator: Sketch 52.4 (67378) - http://www.bohemiancoding.com/sketch -->
    <title>drinks</title>
    <desc>Created with Sketch.</desc>
    <g id="Page-1" stroke="none" stroke-width="1" fill="none" fill-rule="evenodd">
        <g id="Artboard" transform="translate(-116.000000, -38.000000)">
            <g id="drinks" transform="translate(117.000000, 39.000000)">
                <g id="Ring-Icon-Copy">
                    <circle id="Outer-Oval" stroke="#AFEBF9" cx="28" cy="28" r="28"></circle>
                    <circle id="Inner-Oval" fill="#FFFFFF" cx="28" cy="28" r="25"></circle>
                </g>
                <g transform="translate(15.000000, 15.000000)" fill="#081623" fill-rule="nonzero" id="Shape">
                    <path d="M0.372679483,26.1343412 L5.25181317,26.993025 C5.42692757,27.0238942 5.60402939,26.9506343 5.70450488,26.8062885 C5.80498038,26.6617252 5.81005938,26.4725974 5.71753359,26.3230342 L3.83897326,23.288728 L4.42062697,20.0857285 C4.48532875,20.0892067 4.54980972,20.091598 4.61406988,20.091598 C6.30647452,20.0885546 7.75420479,18.8946579 8.05430625,17.2551152 L9.99293104,6.57830518 C10.0366545,6.33635199 9.87302298,6.10505081 9.62724445,6.06179053 L3.63426825,5.00702239 C3.38848977,4.9637621 3.15353171,5.12484689 3.10958748,5.36701745 L1.17074193,16.0438274 C0.866223908,17.7351086 1.87296613,19.388999 3.53158452,19.9220351 L2.93800628,23.1911207 L0.171507675,25.3471781 C0.0321669345,25.4558722 -0.0296641327,25.6350001 0.0136176709,25.8047805 C0.057120229,25.9745607 0.197565082,26.1036894 0.372679483,26.1343412 Z M3.92045776,5.96200927 L9.02284578,6.85982307 L8.42352605,10.1599952 L3.32113809,9.26196399 L3.92045776,5.96200927 Z M2.06110929,16.2005644 L3.1619231,10.1386911 L8.26453188,11.0365049 L7.16349726,17.098813 C6.91175649,18.4857505 5.56538501,19.4092161 4.15629917,19.1613934 C2.74721327,18.9133533 1.80914765,17.5879367 2.06088843,16.2007818 L2.06110929,16.2005644 Z M3.26460682,24.0717608 L4.42283519,25.9423873 L1.52008743,25.4317421 L3.26460682,24.0717608 Z"></path>
                    <path d="M10.044632,7.26050163 L14.8383869,17.1810263 C15.5991834,18.7656754 17.43612,19.5431295 19.1233074,18.994792 L20.5763865,22.0017259 L19.5823742,25.4243741 C19.5328298,25.59511 19.5890694,25.7786235 19.7263208,25.8931818 C19.8635721,26.0079603 20.0561704,26.0324141 20.2184171,25.9559685 L24.7396778,23.8271677 C24.9019246,23.750722 25.0036914,23.5874765 24.9998975,23.4101316 C24.9958804,23.2325662 24.886972,23.0739471 24.7213776,23.0045513 L21.4012337,21.613109 L19.9483778,18.6061751 C21.4358255,17.6524776 21.9781358,15.7589618 21.2166697,14.1776173 L16.4229148,4.25709259 C16.3142296,4.03216187 16.0415122,3.9367701 15.8136527,4.04405828 L10.2604402,6.65885046 C10.0325807,6.76613869 9.93594675,7.03557091 10.044632,7.26050163 Z M20.7406418,24.7103677 L21.3603931,22.5762796 L23.4305453,23.4438381 L20.7406418,24.7103677 Z M19.1552212,18.0131158 C17.8496595,18.6279852 16.286333,18.0814102 15.6634572,16.7924095 L12.9418632,11.1598884 L17.6700052,8.93349281 L20.3915993,14.5660139 C21.0126896,15.8550145 20.459667,17.3971449 19.1552212,18.0131158 Z M15.7949062,5.05283186 L17.2767745,8.11924797 L12.5481861,10.3456436 L11.0665409,7.27922748 L15.7949062,5.05283186 Z"></path>
                    <path d="M9.76885177,4.95915611 C9.77657782,4.96197986 9.78452461,4.96440024 9.79225066,4.96702231 C9.92624227,5.01099256 10.0728163,5.01099256 10.2065871,4.96702231 C10.2156376,4.96419856 10.2244673,4.96137481 10.2330764,4.9579459 C11.2332673,4.58762782 12.0140387,4.03860507 12.4899627,3.37017688 C12.9237246,2.76104802 13.0890619,2.0766857 12.9541873,1.44335303 L12.9535251,1.44032755 C12.7619193,0.572419801 12.0637061,0.0114967902 11.1749909,0.0114967902 C10.7950905,0.0114967902 10.3951024,0.121422351 10.0035026,0.331592005 C9.6077087,0.111337462 9.20992803,0 8.81744528,0 C7.92254919,0 7.22676418,0.567175619 7.04465042,1.44436151 C6.79918312,2.61340486 7.54640146,4.15337139 9.76885177,4.95915611 Z M7.93270344,1.59906412 C8.03314196,1.1149882 8.36403713,0.825954551 8.81744528,0.825954551 C9.09492044,0.825954551 9.41014283,0.940922556 9.72911786,1.15855503 C9.88761206,1.26666532 10.1048241,1.26787554 10.2650842,1.16158052 C10.5800859,0.952621084 10.9034758,0.837653027 11.1747702,0.837653027 C11.6202315,0.837653027 11.9619432,1.13051896 12.0665758,1.60208961 C12.2374316,2.41009297 11.6608484,3.50168417 9.99820477,4.1525646 C8.33622342,3.51439118 7.7609646,2.41775753 7.93270344,1.59906412 Z"></path>
                </g>
            </g>
        </g>
    </g>
</svg>