<svg width="32" height="41" xmlns="http://www.w3.org/2000/svg"><g fill-rule="nonzero" fill="none"><path d="M7.03 7.51a3.033 3.033 0 0 0-3.032 3.02v.972a3.03 3.03 0 1 0 6.062 0v-.972a3.033 3.033 0 0 0-3.03-3.02zm1.851 3.992a1.852 1.852 0 1 1-3.704 0v-.972c0-1.015.844-1.815 1.86-1.815h.001a1.822 1.822 0 0 1 1.843 1.815v.972zM23.783 14.521a3.032 3.032 0 0 0 3.03-3.02v-.971a3.03 3.03 0 1 0-6.061 0v.972a3.032 3.032 0 0 0 3.03 3.02zM21.93 10.53a1.813 1.813 0 0 1 1.832-1.815h.015a1.834 1.834 0 0 1 1.857 1.815v.972a1.852 1.852 0 1 1-3.704 0v-.972z" fill="#79CEE1"/><path d="M28.658 27.02a1.96 1.96 0 0 0 .263.016 2.022 2.022 0 0 0 2.018-2.043V18.37a3.31 3.31 0 0 0-2.589-3.553c1.217-2.598 1.624-5.378 1.13-7.917-.837-4.15-3.835-6.832-7.644-6.832-1.982 0-4.123.758-6.217 2.198C13.496.762 11.392 0 9.357 0c-3.83 0-6.819 2.71-7.614 6.905-.485 2.528-.097 5.292 1.09 7.873a3.327 3.327 0 0 0-2.811 3.287c0 .1.02.203.02.304v8.068c-.004.544.21 1.067.592 1.454.38.387.897.606 1.438.609h.024a1.96 1.96 0 0 0 .974-.278l.347 10.616a2.162 2.162 0 0 0 3.738 1.4 2.163 2.163 0 0 0 3.738-1.407l.346-10.604a2.045 2.045 0 0 0 3.03-1.791v-1.51a21.846 21.846 0 0 0 .824.34 1.451 1.451 0 0 0 1.082-.013c.187-.076.372-.136.556-.215a2.059 2.059 0 0 0 2.042 2.03h.001c.042 0 .085-.018.128-.02.042-.003.084-.015.125-.02l-2.487 9.846a1.999 1.999 0 0 0 1.97 2.486h1.703c.274.926 1.094 1.6 2.066 1.6h3.15c.973 0 1.793-.674 2.066-1.6h1.688a2.003 2.003 0 0 0 1.97-2.501l-2.495-9.84zm-1.76-3.067h-6.062v-4.757a.123.123 0 0 1 .047-.11.117.117 0 0 1 .118-.013l2.096.836a2.022 2.022 0 0 0 1.504 0l2.095-.836a.15.15 0 0 1 .134.014c.04.022.065.064.068.11v4.756zm-6.424 2.149c.19-.291.303-.624.332-.97h6.078c.027.345.139.677.325.968l.182.716h-7.098l.181-.714zM8.845 18.934l.202.769-.816.546 1.085-3.353.383.827-.682.627a.589.589 0 0 0-.172.584zm-1.688.842l-1.192-3.82h2.429l-1.237 3.82zM5.28 18.35l-.676-.62.423-.861 1.039 3.324-.716-.507.115-.82a.59.59 0 0 0-.185-.516zm3.43 21.39a1.005 1.005 0 0 1-1.006-.985V28.33H6.524v10.424a.97.97 0 0 1-.965.985.99.99 0 0 1-.974-.969l-.397-12.46h5.933l-.417 12.458a1.01 1.01 0 0 1-.995.971zm4.382-21.458a.599.599 0 0 0 0 .06v8.094a.884.884 0 0 1-1.768 0v-1.788l.009-.253h-.009v-3.388h-1.179v3.623l.016.502H4.15l-.043-.796-.024.02v-3.35h-1.18v5.39c0 .493-.35.925-.82.925h-.01a.858.858 0 0 1-.605-.263.878.878 0 0 1-.248-.621v-8.096a1.736 1.736 0 0 1-.022-.257 2.131 2.131 0 0 1 2.145-2.129h.837l-.829 1.67a.576.576 0 0 0 .13.685l.773.704-.122.866a.587.587 0 0 0 .243.56l2.431 1.726c.013.009.027.015.04.023.012.007.023.015.034.02.017.009.035.016.053.023.01.004.022.01.033.013.02.006.04.011.061.015l.03.007a.57.57 0 0 0 .179 0c.01-.001.018-.004.028-.006a.613.613 0 0 0 .058-.014l.033-.012.051-.021.033-.019.036-.02 2.577-1.727a.59.59 0 0 0 .242-.639l-.219-.831.739-.678a.562.562 0 0 0 .135-.663l-.786-1.682h.79c.071 0 .145-.014.217-.007a2.134 2.134 0 0 1 1.921 2.334zm3.616-.198c0 .1.004.185.004.286v5.367c-.337.142-.638.282-.969.416a.938.938 0 0 1-.127.033.728.728 0 0 1-.137-.034c-.411-.163-.788-.335-1.209-.512v-5.27a3.313 3.313 0 0 0-2.98-3.595c-.11-.011-.225.001-.336.001H9.449c-.082-.084-.173-.051-.266-.045-.067.004-.131-.039-.191.045H5.377c-.058-.084-.12-.04-.183-.045-.095-.007-.188-.039-.272.045h-.798c-1.255-2.525-1.69-5.196-1.222-7.632.34-1.799 1.13-3.315 2.283-4.368a6.082 6.082 0 0 1 4.173-1.592c1.886 0 3.873.766 5.905 2.282a.59.59 0 0 0 .699.004c2.002-1.454 4.035-2.222 5.877-2.222 1.59 0 3.035.546 4.18 1.58 1.155 1.044 1.955 2.55 2.312 4.32.47 2.428.03 5.103-1.244 7.63h-7.045a3.322 3.322 0 0 0-3.335 3.306zm2.134 7.787c-.02.001-.05.018-.068.018a.91.91 0 0 1-.884-.895V18.34c0-.02.009-.04.007-.059a2.138 2.138 0 0 1 2.146-2.327h7.61c.072 0 .145-.014.217-.007a2.133 2.133 0 0 1 1.907 2.343c-.002.02-.016.03-.016.05v6.652a.847.847 0 0 1-.868.864c-.459-.017-.816-.42-.816-.9v-5.76a1.326 1.326 0 0 0-1.815-1.219l-2.097.836a.853.853 0 0 1-.633 0l-2.099-.836a1.295 1.295 0 0 0-1.775 1.218v5.756c0 .478-.365.891-.816.92v-.001zm6.588 13.91h-3.15a.932.932 0 0 1-.745-.421h4.64a.932.932 0 0 1-.745.42zm4.427-1.909a.832.832 0 0 1-.673.31H18.51a.825.825 0 0 1-.828-1.033l2.314-9.155h7.693l2.321 9.154a.828.828 0 0 1-.154.724z" fill="#FFF"/></g></svg>