<?xml version="1.0" encoding="UTF-8"?>
<svg width="168px" height="47px" viewBox="0 0 168 47" version="1.1" xmlns="http://www.w3.org/2000/svg" xmlns:xlink="http://www.w3.org/1999/xlink">
    <!-- Generator: Sketch 52.4 (67378) - http://www.bohemiancoding.com/sketch -->
    <title>logo</title>
    <desc>Created with Sketch.</desc>
    <g id="Page-1" stroke="none" stroke-width="1" fill="none" fill-rule="evenodd">
        <g id="Sample-One" transform="translate(-44.000000, -36.000000)" fill="#FFFFFF">
            <g id="logo" transform="translate(44.000000, 36.000000)">
                <path d="M51,38.0625 L51.6730656,38.0625 L53.091311,46.1875 L55.651364,41.8625 L54.9782984,38.125 L55.5792499,38.125 L56.1201062,41.35 L57.9830556,38.125 L58.584007,38.125 L56.3965438,41.8625 L57.1897997,46.1875 L61.9252969,38.0625 L62.5983625,38.0625 L57.322009,46.9375 L56.7691337,46.9375 L55.9278017,42.375 L53.1994822,46.9375 L52.6466069,46.9375 L51,38.0625 Z M65.7295017,38.0625 L71.0298933,38.0625 L70.9217221,38.6375 L66.2222819,38.6375 L65.5131592,42.125 L69.611648,42.125 L69.4914577,42.675 L65.404988,42.675 L64.6477892,46.3625 L69.4433816,46.3625 L69.3231913,46.9375 L63.9146284,46.9375 L65.7295017,38.0625 Z M74.5696795,38.0625 L77.2739609,38.0625 C77.8028008,38.0625 78.2615225,38.1499991 78.6501397,38.325 C79.0387569,38.5000009 79.3592611,38.7395818 79.611662,39.04375 C79.8640628,39.3479182 80.0523591,39.7062479 80.1765563,40.11875 C80.3007536,40.5312521 80.3628513,40.9749976 80.3628513,41.45 C80.3628513,42.2416706 80.240659,42.97083 79.9962709,43.6375 C79.7518828,44.30417 79.411347,44.8833309 78.9746535,45.375 C78.5379599,45.8666691 78.0191437,46.2499986 77.4181893,46.525 C76.8172348,46.8000014 76.1642075,46.9375 75.4590876,46.9375 L72.7548062,46.9375 L74.5696795,38.0625 Z M75.5792779,46.3625 C76.220296,46.3625 76.7972036,46.2312513 77.310018,45.96875 C77.8228325,45.7062487 78.2575163,45.3541689 78.6140826,44.9125 C78.9706489,44.4708311 79.2450807,43.9604196 79.4373861,43.38125 C79.6296915,42.8020804 79.7258428,42.1958365 79.7258428,41.5625 C79.7258428,41.1374979 79.6717577,40.7458351 79.5635859,40.3875 C79.4554141,40.0291649 79.2931588,39.7208346 79.0768152,39.4625 C78.8604716,39.2041654 78.5920493,39.0020841 78.2715403,38.85625 C77.9510313,38.7104159 77.5784451,38.6375 77.1537706,38.6375 L75.0624597,38.6375 L73.4879669,46.3625 L75.5792779,46.3625 Z M84.6598363,38.0625 L87.3641177,38.0625 C87.8929576,38.0625 88.3516792,38.1499991 88.7402964,38.325 C89.1289136,38.5000009 89.4494179,38.7395818 89.7018187,39.04375 C89.9542196,39.3479182 90.1425158,39.7062479 90.2667131,40.11875 C90.3909103,40.5312521 90.453008,40.9749976 90.453008,41.45 C90.453008,42.2416706 90.3308158,42.97083 90.0864276,43.6375 C89.8420395,44.30417 89.5015038,44.8833309 89.0648102,45.375 C88.6281167,45.8666691 88.1093004,46.2499986 87.508346,46.525 C86.9073916,46.8000014 86.2543642,46.9375 85.5492444,46.9375 L82.8449629,46.9375 L84.6598363,38.0625 Z M85.6694346,46.3625 C86.3104527,46.3625 86.8873603,46.2312513 87.4001748,45.96875 C87.9129892,45.7062487 88.3476731,45.3541689 88.7042394,44.9125 C89.0608056,44.4708311 89.3352374,43.9604196 89.5275428,43.38125 C89.7198482,42.8020804 89.8159995,42.1958365 89.8159995,41.5625 C89.8159995,41.1374979 89.7619144,40.7458351 89.6537426,40.3875 C89.5455708,40.0291649 89.3833155,39.7208346 89.1669719,39.4625 C88.9506284,39.2041654 88.6822061,39.0020841 88.361697,38.85625 C88.041188,38.7104159 87.6686019,38.6375 87.2439274,38.6375 L85.1526164,38.6375 L83.5781237,46.3625 L85.6694346,46.3625 Z M94.749993,38.075 L95.3629634,38.075 L93.5480901,46.9375 L92.9351197,46.9375 L94.749993,38.075 Z M99.3714917,38.0625 L99.8522529,38.0625 L103.890646,45.875 L105.477158,38.075 L106.090129,38.075 L104.275255,46.9375 L103.734399,46.9375 L99.7440816,39.2625 L98.1695889,46.9375 L97.5566184,46.9375 L99.3714917,38.0625 Z M114.521659,45.5625 C113.55212,46.5208381 112.558557,47 111.54094,47 C111.06819,47 110.647528,46.8958344 110.278942,46.6875 C109.910357,46.4791656 109.597865,46.2020851 109.341458,45.85625 C109.085051,45.5104149 108.888742,45.1145856 108.752526,44.66875 C108.616309,44.2229144 108.548202,43.7625024 108.548202,43.2875 C108.548202,42.6291634 108.678407,41.9833365 108.938821,41.35 C109.199234,40.7166635 109.549786,40.1520858 109.990486,39.65625 C110.431186,39.1604142 110.937983,38.7604182 111.510893,38.45625 C112.083803,38.1520818 112.678739,38 113.295719,38 C113.704368,38 114.060929,38.0479162 114.365412,38.14375 C114.669896,38.2395838 114.930305,38.3729158 115.146649,38.54375 C115.362993,38.7145842 115.541273,38.9187488 115.681496,39.15625 C115.821718,39.3937512 115.927885,39.6541652 116,39.9375 L115.447125,40.25 C115.28687,39.6666637 115.010435,39.2437513 114.617812,38.98125 C114.225188,38.7187487 113.740426,38.5875 113.163509,38.5875 C112.610631,38.5875 112.091815,38.7270819 111.607045,39.00625 C111.122275,39.2854181 110.69961,39.6479144 110.339038,40.09375 C109.978465,40.5395856 109.692014,41.0395806 109.479677,41.59375 C109.26734,42.1479194 109.161173,42.6999972 109.161173,43.25 C109.161173,43.6750021 109.221267,44.0791647 109.341458,44.4625 C109.461649,44.8458352 109.631917,45.1812486 109.852267,45.46875 C110.072617,45.7562514 110.337033,45.9854158 110.645523,46.15625 C110.954013,46.3270842 111.300558,46.4125 111.685169,46.4125 C112.173945,46.4125 112.662714,46.2895846 113.15149,46.04375 C113.640267,45.7979154 114.145061,45.4041694 114.665888,44.8625 L115.026459,43.1375 L113.199566,43.1375 L113.307738,42.625 L115.663467,42.625 L114.786078,46.9375 L114.245222,46.9375 L114.521659,45.5625 Z" id="Wedding"></path>
                <path d="M20.2102564,0 C20.0427342,1.70453299 19.9589744,3.24099039 19.9589744,4.60941828 C19.9589744,5.80979363 19.9948714,6.79408665 20.0666667,7.56232687 L19.2410256,7.56232687 C19.0495717,5.71374884 18.8102578,4.33933968 18.5230769,3.43905817 C18.235896,2.53877666 17.7333369,1.87858012 17.0153846,1.45844875 C16.2974323,1.03831738 15.1965886,0.828254848 13.7128205,0.828254848 L11.774359,0.828254848 L11.774359,21.3185596 C11.774359,22.3268748 11.8700845,23.0590928 12.0615385,23.5152355 C12.2529924,23.9713781 12.5880318,24.283471 13.0666667,24.4515235 C13.5453015,24.6195761 14.3230715,24.7276083 15.4,24.7756233 L15.4,25.4958449 C14.1555493,25.4238224 12.3965926,25.3878116 10.1230769,25.3878116 C7.72990256,25.3878116 5.9589801,25.4238224 4.81025641,25.4958449 L4.81025641,24.7756233 C5.88718487,24.7276083 6.66495487,24.6195761 7.14358974,24.4515235 C7.62222462,24.283471 7.957264,23.9713781 8.14871795,23.5152355 C8.3401719,23.0590928 8.43589744,22.3268748 8.43589744,21.3185596 L8.43589744,0.828254848 L6.4974359,0.828254848 C5.01366779,0.828254848 3.9128241,1.03831738 3.19487179,1.45844875 C2.47691949,1.87858012 1.97436041,2.53877666 1.68717949,3.43905817 C1.39999856,4.33933968 1.16068472,5.71374884 0.969230769,7.56232687 L0.143589744,7.56232687 C0.215384974,6.79408665 0.251282051,5.80979363 0.251282051,4.60941828 C0.251282051,3.24099039 0.167522205,1.70453299 0,0 C1.98633472,0.0720225208 5.36065995,0.108033241 10.1230769,0.108033241 C14.8615622,0.108033241 18.2239217,0.0720225208 20.2102564,0 Z M46.2,4.32132964 C45.3384572,4.36934465 44.7102584,4.46537324 44.3153846,4.60941828 C43.9205108,4.75346332 43.6512828,5.02954551 43.5076923,5.43767313 C43.3641018,5.84580075 43.2923077,6.50599729 43.2923077,7.41828255 L43.2923077,21.6786704 C43.2923077,22.5909556 43.3641018,23.2511522 43.5076923,23.6592798 C43.6512828,24.0674074 43.9205108,24.3434896 44.3153846,24.4875346 C44.7102584,24.6315797 45.3384572,24.7276083 46.2,24.7756233 L46.2,25.4958449 C45.1948668,25.4238224 43.6632582,25.3878116 41.6051282,25.3878116 C39.6905887,25.3878116 38.1709458,25.4238224 37.0461538,25.4958449 L37.0461538,24.7756233 C37.9076966,24.7276083 38.5358955,24.6315797 38.9307692,24.4875346 C39.325643,24.3434896 39.5948711,24.0674074 39.7384615,23.6592798 C39.882052,23.2511522 39.9538462,22.5909556 39.9538462,21.6786704 L39.9538462,14.5124654 L29.0051282,14.5124654 L29.0051282,21.6786704 C29.0051282,22.5909556 29.0769224,23.2511522 29.2205128,23.6592798 C29.3641033,24.0674074 29.6333314,24.3434896 30.0282051,24.4875346 C30.4230789,24.6315797 31.0512777,24.7276083 31.9128205,24.7756233 L31.9128205,25.4958449 C30.8119603,25.4238224 29.2923174,25.3878116 27.3538462,25.3878116 C25.2957162,25.3878116 23.7641076,25.4238224 22.7589744,25.4958449 L22.7589744,24.7756233 C23.6205171,24.7276083 24.248716,24.6315797 24.6435897,24.4875346 C25.0384635,24.3434896 25.3076916,24.0674074 25.4512821,23.6592798 C25.5948725,23.2511522 25.6666667,22.5909556 25.6666667,21.6786704 L25.6666667,7.41828255 C25.6666667,6.50599729 25.5948725,5.84580075 25.4512821,5.43767313 C25.3076916,5.02954551 25.0384635,4.75346332 24.6435897,4.60941828 C24.248716,4.46537324 23.6205171,4.36934465 22.7589744,4.32132964 L22.7589744,3.60110803 C23.7641076,3.67313055 25.2957162,3.70914127 27.3538462,3.70914127 C29.2683856,3.70914127 30.7880286,3.67313055 31.9128205,3.60110803 L31.9128205,4.32132964 C31.0512777,4.36934465 30.4230789,4.46537324 30.0282051,4.60941828 C29.6333314,4.75346332 29.3641033,5.02954551 29.2205128,5.43767313 C29.0769224,5.84580075 29.0051282,6.50599729 29.0051282,7.41828255 L29.0051282,13.7922438 L39.9538462,13.7922438 L39.9538462,7.41828255 C39.9538462,6.50599729 39.882052,5.84580075 39.7384615,5.43767313 C39.5948711,5.02954551 39.325643,4.75346332 38.9307692,4.60941828 C38.5358955,4.46537324 37.9076966,4.36934465 37.0461538,4.32132964 L37.0461538,3.60110803 C38.1470141,3.67313055 39.666657,3.70914127 41.6051282,3.70914127 C43.6632582,3.70914127 45.1948668,3.67313055 46.2,3.60110803 L46.2,4.32132964 Z M66.8769231,21.2465374 C66.8769231,22.4949278 66.9606829,23.9113494 67.1282051,25.4958449 C65.5726418,25.4238224 62.9521552,25.3878116 59.2666667,25.3878116 C54.8392941,25.3878116 51.4889003,25.4238224 49.2153846,25.4958449 L49.2153846,24.7756233 C50.0769274,24.7276083 50.7051262,24.6315797 51.1,24.4875346 C51.4948738,24.3434896 51.7641018,24.0674074 51.9076923,23.6592798 C52.0512828,23.2511522 52.1230769,22.5909556 52.1230769,21.6786704 L52.1230769,7.41828255 C52.1230769,6.50599729 52.0512828,5.84580075 51.9076923,5.43767313 C51.7641018,5.02954551 51.4948738,4.75346332 51.1,4.60941828 C50.7051262,4.46537324 50.0769274,4.36934465 49.2153846,4.32132964 L49.2153846,3.60110803 C51.4889003,3.67313055 54.8392941,3.70914127 59.2666667,3.70914127 C62.6171108,3.70914127 64.9982835,3.67313055 66.4102564,3.60110803 C66.2427342,5.04155845 66.1589744,6.33794438 66.1589744,7.49030471 C66.1589744,8.42659748 66.1948714,9.17081903 66.2666667,9.72299169 L65.4410256,9.72299169 C65.2735034,7.75437612 64.8606871,6.37996697 64.2025641,5.59972299 C63.5444412,4.81947902 62.4735117,4.42936288 60.9897436,4.42936288 L58.3692308,4.42936288 C57.507688,4.42936288 56.8794892,4.49538253 56.4846154,4.62742382 C56.0897416,4.75946511 55.8205135,5.02954551 55.6769231,5.43767313 C55.5333326,5.84580075 55.4615385,6.50599729 55.4615385,7.41828255 L55.4615385,14.1163435 L58.4410256,14.1163435 C59.2068414,14.1163435 59.7931604,13.9182845 60.2,13.5221607 C60.6068396,13.1260368 60.8820506,12.6939082 61.025641,12.2257618 C61.1692315,11.7576154 61.3008541,11.1634385 61.4205128,10.4432133 L62.2461538,10.4432133 C62.1743586,11.2594685 62.1384615,12.147733 62.1384615,13.1080332 L62.1384615,14.4764543 C62.1384615,15.4127471 62.2102557,16.7571473 62.3538462,18.5096953 L61.5282051,18.5096953 C61.3846147,17.357335 61.1094037,16.457067 60.7025641,15.8088643 C60.2957245,15.1606616 59.5418858,14.8365651 58.4410256,14.8365651 L55.4615385,14.8365651 L55.4615385,21.6786704 C55.4615385,22.5909556 55.5333326,23.2511522 55.6769231,23.6592798 C55.8205135,24.0674074 56.0897416,24.3374878 56.4846154,24.4695291 C56.8794892,24.6015704 57.507688,24.66759 58.3692308,24.66759 L60.9897436,24.66759 C62.1863308,24.66759 63.1316205,24.4755329 63.825641,24.0914127 C64.5196616,23.7072926 65.0461521,23.0891086 65.4051282,22.2368421 C65.7641044,21.3845756 66.0153839,20.1902201 66.1589744,18.6537396 L66.9846154,18.6537396 C66.9128202,19.3019423 66.8769231,20.1661996 66.8769231,21.2465374 Z M91.4307692,12.0277008 C94.063261,12.3878134 95.9418747,13.1500403 97.0666667,14.3144044 C98.1914586,15.4787685 98.7538462,16.8771848 98.7538462,18.5096953 C98.7538462,19.8781232 98.4068411,21.0904841 97.7128205,22.1468144 C97.0187999,23.2031447 96.0256475,24.0253895 94.7333333,24.6135734 C93.4410192,25.2017573 91.9094106,25.4958449 90.1384615,25.4958449 C89.4923045,25.4958449 88.9418826,25.4838413 88.4871795,25.4598338 C86.9555479,25.4118188 85.4478707,25.3878116 83.9641026,25.3878116 C82.0016996,25.3878116 80.5179537,25.4238224 79.5128205,25.4958449 L79.5128205,24.7756233 C80.3743633,24.7276083 81.0025621,24.6315797 81.3974359,24.4875346 C81.7923097,24.3434896 82.0615377,24.0674074 82.2051282,23.6592798 C82.3487187,23.2511522 82.4205128,22.5909556 82.4205128,21.6786704 L82.4205128,3.81717452 C82.4205128,2.90488925 82.3487187,2.24469271 82.2051282,1.8365651 C82.0615377,1.42843748 81.7923097,1.15235529 81.3974359,1.00831025 C81.0025621,0.864265208 80.3743633,0.76823662 79.5128205,0.720221607 L79.5128205,0 C80.5179537,0.0720225208 81.9777682,0.108033241 83.8923077,0.108033241 L87.7692308,0.0720221607 C88.2239339,0.0480146537 88.7384587,0.0360110803 89.3128205,0.0360110803 C91.7538584,0.0360110803 93.6264892,0.552164737 94.9307692,1.58448753 C96.2350493,2.61681033 96.8871795,3.9852177 96.8871795,5.68975069 C96.8871795,7.08218609 96.4504317,8.33055773 95.5769231,9.43490305 C94.7034144,10.5392484 93.321377,11.3794985 91.4307692,11.9556787 L91.4307692,12.0277008 Z M88.4153846,0.720221607 C87.6735006,0.720221607 87.1170959,0.80424662 86.7461538,0.972299169 C86.3752118,1.14035172 86.1179494,1.44044105 85.974359,1.87257618 C85.8307685,2.3047113 85.7589744,2.95290427 85.7589744,3.81717452 L85.7589744,11.9556787 L88.1641026,11.9556787 C90.1265055,11.9556787 91.4965773,11.4215197 92.274359,10.3531856 C93.0521406,9.28485154 93.4410256,7.86242809 93.4410256,6.08587258 C93.4410256,4.28530956 93.0461578,2.94090934 92.2564103,2.05263158 C91.4666627,1.16435382 90.1863336,0.720221607 88.4153846,0.720221607 Z M88.4512821,24.66759 C92.9265181,24.66759 95.1641026,22.5669647 95.1641026,18.365651 C95.1641026,16.4690579 94.6555606,15.0286291 93.6384615,14.0443213 C92.6213624,13.0600135 91.0000111,12.567867 88.774359,12.567867 L85.7589744,12.567867 L85.7589744,21.6786704 C85.7589744,22.5429406 85.8307685,23.17913 85.974359,23.5872576 C86.1179494,23.9953852 86.3752118,24.2774692 86.7461538,24.433518 C87.1170959,24.5895668 87.6854663,24.66759 88.4512821,24.66759 Z M119.897436,22.4709141 C120.543593,23.9593796 121.369226,24.7276083 122.374359,24.7756233 L122.374359,25.4958449 C121.417089,25.4238224 120.13676,25.3878116 118.533333,25.3878116 C116.475203,25.3878116 114.943595,25.4238224 113.938462,25.4958449 L113.938462,24.7756233 C114.823936,24.7276083 115.476066,24.6075725 115.894872,24.4155125 C116.313677,24.2234524 116.523077,23.8993559 116.523077,23.4432133 C116.523077,23.0590932 116.355557,22.4949252 116.020513,21.7506925 L114.189744,17.6454294 L105.466667,17.6454294 L104.246154,20.3462604 C103.839314,21.2825532 103.635897,22.0507819 103.635897,22.6509695 C103.635897,23.2751647 103.857263,23.7613094 104.3,24.1094183 C104.742737,24.4575271 105.454696,24.6795932 106.435897,24.7756233 L106.435897,25.4958449 C105.717945,25.4238224 104.629067,25.3878116 103.169231,25.3878116 C101.709394,25.3878116 100.668379,25.4238224 100.046154,25.4958449 L100.046154,24.7756233 C100.692311,24.6075707 101.242733,24.2414617 101.697436,23.6772853 C102.152139,23.1131089 102.582904,22.3628856 102.989744,21.4265928 L110.923077,3.42105263 L111.497436,3.42105263 L119.897436,22.4709141 Z M113.902564,16.9252078 L109.846154,7.77839335 L105.753846,16.9252078 L113.902564,16.9252078 Z M144.953846,23.9833795 C144.499143,24.6315822 143.978635,25.1297305 143.392308,25.4778393 C142.80598,25.8259482 142.105987,26 141.292308,26 C139.282041,26 138.049575,25.0877284 137.594872,23.2631579 L136.482051,18.7617729 C136.147007,17.4173525 135.650431,16.5170845 134.992308,16.0609418 C134.334185,15.6047992 133.358981,15.3767313 132.066667,15.3767313 L130.020513,15.3767313 L130.020513,21.6786704 C130.020513,22.5909556 130.092307,23.2511522 130.235897,23.6592798 C130.379488,24.0674074 130.648716,24.3434896 131.04359,24.4875346 C131.438464,24.6315797 132.066662,24.7276083 132.928205,24.7756233 L132.928205,25.4958449 C131.827345,25.4238224 130.307702,25.3878116 128.369231,25.3878116 C126.311101,25.3878116 124.779492,25.4238224 123.774359,25.4958449 L123.774359,24.7756233 C124.635902,24.7276083 125.264101,24.6315797 125.658974,24.4875346 C126.053848,24.3434896 126.323076,24.0674074 126.466667,23.6592798 C126.610257,23.2511522 126.682051,22.5909556 126.682051,21.6786704 L126.682051,7.41828255 C126.682051,6.50599729 126.610257,5.84580075 126.466667,5.43767313 C126.323076,5.02954551 126.053848,4.75346332 125.658974,4.60941828 C125.264101,4.46537324 124.635902,4.36934465 123.774359,4.32132964 L123.774359,3.60110803 C124.779492,3.67313055 126.239307,3.70914127 128.153846,3.70914127 L131.815385,3.67313019 C132.222224,3.64912269 132.688886,3.63711911 133.215385,3.63711911 C135.89574,3.63711911 137.947856,4.1412692 139.371795,5.14958449 C140.795734,6.15789978 141.507692,7.46628928 141.507692,9.07479224 C141.507692,10.4672276 140.951288,11.7396064 139.838462,12.8919668 C138.725635,14.0443271 136.900867,14.7765451 134.364103,15.0886427 C134.842737,15.1366577 135.249571,15.184672 135.584615,15.232687 C136.852998,15.424747 137.858116,15.8088614 138.6,16.3850416 C139.341884,16.9612217 139.868375,17.8854969 140.179487,19.1578947 L140.969231,22.434903 C141.160685,23.2751658 141.370084,23.8693427 141.597436,24.2174515 C141.824787,24.5655604 142.117947,24.7396122 142.476923,24.7396122 C143.075217,24.7396122 143.73333,24.3314907 144.451282,23.5152355 L144.953846,23.9833795 Z M132.317949,4.32132964 C131.671792,4.32132964 131.187181,4.40535465 130.864103,4.5734072 C130.541024,4.74145975 130.319659,5.04154909 130.2,5.47368421 C130.080341,5.90581934 130.020513,6.5540123 130.020513,7.41828255 L130.020513,14.6565097 L132.425641,14.6565097 C134.531634,14.6565097 135.9735,14.2063757 136.751282,13.3060942 C137.529064,12.4058127 137.917949,11.1274321 137.917949,9.47091413 C137.917949,7.74237363 137.481201,6.45198949 136.607692,5.59972299 C135.734184,4.7474565 134.304283,4.32132964 132.317949,4.32132964 Z M168,4.32132964 C167.162389,4.36934465 166.540173,4.49538217 166.133333,4.69944598 C165.726494,4.90350979 165.451283,5.23960985 165.307692,5.70775623 C165.164102,6.17590262 165.092308,6.86610809 165.092308,7.77839335 L165.092308,25.6759003 L164.266667,25.6759003 L149.907692,5.72576177 L149.907692,21.3185596 C149.907692,22.2548523 149.985469,22.9510596 150.141026,23.4072022 C150.296582,23.8633448 150.601707,24.1934431 151.05641,24.3975069 C151.511113,24.6015707 152.217089,24.7276083 153.174359,24.7756233 L153.174359,25.4958449 C152.312816,25.4238224 151.092316,25.3878116 149.512821,25.3878116 C148.076916,25.3878116 146.964107,25.4238224 146.174359,25.4958449 L146.174359,24.7756233 C147.01197,24.7276083 147.634186,24.6015707 148.041026,24.3975069 C148.447865,24.1934431 148.723076,23.8573431 148.866667,23.3891967 C149.010257,22.9210503 149.082051,22.2308448 149.082051,21.3185596 L149.082051,7.41828255 C149.082051,6.50599729 149.010257,5.84580075 148.866667,5.43767313 C148.723076,5.02954551 148.453848,4.75346332 148.058974,4.60941828 C147.664101,4.46537324 147.035902,4.36934465 146.174359,4.32132964 L146.174359,3.60110803 C146.964107,3.67313055 148.076916,3.70914127 149.512821,3.70914127 C150.805135,3.70914127 151.905978,3.67313055 152.815385,3.60110803 L164.266667,19.5900277 L164.266667,7.77839335 C164.266667,6.84210058 164.18889,6.14589332 164.033333,5.68975069 C163.877777,5.23360806 163.572652,4.90350979 163.117949,4.69944598 C162.663246,4.49538217 161.95727,4.36934465 161,4.32132964 L161,3.60110803 C161.861543,3.67313055 163.082043,3.70914127 164.661538,3.70914127 C166.097443,3.70914127 167.210252,3.67313055 168,3.60110803 L168,4.32132964 Z" id="The-Barn"></path>
            </g>
        </g>
    </g>
</svg>