<?xml version="1.0" encoding="UTF-8"?>
<svg width="58px" height="58px" viewBox="0 0 58 58" version="1.1" xmlns="http://www.w3.org/2000/svg" xmlns:xlink="http://www.w3.org/1999/xlink">
    <!-- Generator: Sketch 52.4 (67378) - http://www.bohemiancoding.com/sketch -->
    <title>married</title>
    <desc>Created with Sketch.</desc>
    <g id="Page-1" stroke="none" stroke-width="1" fill="none" fill-rule="evenodd">
        <g id="Artboard" transform="translate(-359.000000, -38.000000)">
            <g id="married" transform="translate(360.000000, 39.000000)">
                <g id="Ring-Icon-Copy-4">
                    <circle id="Outer-Oval" stroke="#AFEBF9" cx="28" cy="28" r="28"></circle>
                    <circle id="Inner-Oval" fill="#FFFFFF" cx="28" cy="28" r="25"></circle>
                </g>
                <g id="first-dance" transform="translate(18.000000, 15.000000)" fill="#081623" fill-rule="nonzero">
                    <path d="M5,5 C3.8986545,5.00070249 3.00477428,5.96145743 3,7.15004918 L3,7.84198944 C3,9.03385939 3.89539928,10 5,10 C6.10460067,10 7,9.03385939 7,7.84198944 L7,7.15004918 C6.99522567,5.96169157 6.10134544,5.00070249 5,5 Z M6.22222222,7.84198944 C6.22222222,8.57045845 5.67491317,9.16077367 5,9.16077367 C4.32486978,9.16077367 3.77777778,8.57045845 3.77777778,7.84198944 L3.77777778,7.15004918 C3.77777778,6.42743407 4.33506944,5.85795906 5.00477428,5.85795906 L5.00607633,5.85795906 C5.32660589,5.85397837 5.63519961,5.98838568 5.86349822,6.2309746 C6.09179683,6.47332926 6.22092011,6.80419616 6.22222222,7.15004918 L6.22222222,7.84198944 Z" id="Shape"></path>
                    <path d="M16,10 C17.1013454,9.99953165 17.9952257,9.03854256 18,7.84995085 L18,7.15801059 C18,5.96614056 17.1046007,5 16,5 C14.8953993,5 14,5.96614056 14,7.15801059 L14,7.84995085 C14.0047743,9.03854256 14.8984374,9.99953165 16,10 Z M14.7777778,7.15801059 C14.7775607,6.81309414 14.9051649,6.4822273 15.1323784,6.23963843 C15.359592,5.99681542 15.6673177,5.86217391 15.9869791,5.86592045 L15.9971788,5.86592045 C16.3185763,5.86170562 16.6282552,5.9954105 16.8580729,6.23776516 C17.0878906,6.48011988 17.21875,6.81122087 17.2222222,7.15801059 L17.2222222,7.84995085 C17.2222222,8.57841987 16.6749132,9.1687351 16,9.1687351 C15.3248698,9.1687351 14.7777778,8.57841987 14.7777778,7.84995085 L14.7777778,7.15801059 Z" id="Shape"></path>
                    <path d="M18.3601742,17.8106047 C18.399814,17.8158075 18.4398754,17.8194927 18.4807803,17.8207935 C18.4968049,17.8214438 18.5128295,17.8216605 18.5288541,17.8216605 C18.8744371,17.8207935 19.2054713,17.6781508 19.4483704,17.425166 C19.6912694,17.1721813 19.8257917,16.830099 19.8224181,16.474793 L19.8224181,12.1092341 C19.9263671,11.0088479 19.2130619,10.0025452 18.1626079,9.76711979 C18.9431741,8.05475757 19.2035737,6.22229807 18.8875097,4.54808951 C18.3504751,1.81229877 16.4281568,0.0446571507 13.9863045,0.0446571507 C12.7153015,0.0446571507 11.3426688,0.544556761 9.99997682,1.49362899 C8.63915179,0.502284228 7.29013429,0 5.98518445,0 C3.52983772,0 1.6136341,1.78693528 1.10358825,4.55177479 C0.792584677,6.21839596 1.04138752,8.03979961 1.80297726,9.74175623 C0.765174221,9.90889529 0,10.8280516 0,11.9080603 C0,11.9746124 0.0124401559,12.0422485 0.0124401559,12.1088005 L0.0124401559,17.4269003 C0.0103316841,17.7856747 0.147173237,18.1305751 0.392813322,18.3855109 C0.635712373,18.6404468 0.967800933,18.7848236 1.31485985,18.7865579 L1.33004104,18.7865579 C1.55016825,18.7828726 1.76544601,18.7195722 1.95436749,18.603377 L2.17702495,25.6015383 C2.19726654,26.1764447 2.551916,26.6826309 3.0760888,26.8844551 C3.60026155,27.0864961 4.19106292,26.944287 4.57375545,26.52438 C4.95729132,26.9440702 5.54872525,27.0851954 6.072898,26.8825041 C6.59707075,26.679596 6.9510877,26.1723258 6.97027505,25.5967692 L7.19166744,18.6070623 C7.5979751,18.836201 8.09157463,18.8279633 8.49029175,18.5853841 C8.88921971,18.3430216 9.13422728,17.9023035 9.13485985,17.4260331 L9.13485985,16.4312198 C9.29679255,16.5051425 9.47200875,16.5775478 9.64364057,16.6475684 C9.65017688,16.6503866 9.65586984,16.6527712 9.66261703,16.6551558 C9.87873819,16.7412183 10.1184745,16.7412183 10.3345956,16.6551558 C10.3421862,16.6525544 10.3495659,16.6495195 10.3569456,16.6464845 C10.4764975,16.5966246 10.595206,16.55652 10.713282,16.5049258 C10.7231919,17.2428522 11.3049267,17.8372688 12.0226597,17.843122 L12.0230813,17.843122 C12.0500701,17.843122 12.0774806,17.831199 12.1053128,17.8294647 C12.1323016,17.8277305 12.1586578,17.8194927 12.185014,17.8160242 L10.5903565,24.3071322 C10.4906245,24.7029763 10.5777055,25.1239673 10.8256649,25.4437209 C11.0734135,25.7669431 11.4537867,25.9525087 11.8537689,25.9455716 L12.9455495,25.9455716 C13.1211875,26.5560302 13.6468362,27 14.2705301,27 L16.2898393,27 C16.9135332,27 17.439182,26.5560302 17.6146091,25.9455716 L18.6964797,25.9455716 C19.0966728,25.9516415 19.4768351,25.7656425 19.7245837,25.4422035 C19.9721215,25.1189813 20.0592025,24.695389 19.9596813,24.2969434 L18.3601742,17.8106047 Z M17.2314949,15.7897615 L13.3451101,15.7897615 L13.3451101,12.6535741 C13.342369,12.625826 13.3537549,12.5985114 13.3752616,12.5813856 C13.3969791,12.5644767 13.4260764,12.5612249 13.4509567,12.5727143 L14.7949137,13.1239914 C15.1042305,13.2514593 15.4496026,13.2514593 15.7591302,13.1239914 L17.1022439,12.5729312 C17.1304978,12.5618753 17.1623361,12.565127 17.1878489,12.5818192 C17.2135726,12.5965604 17.2300189,12.6238749 17.2317057,12.6540077 L17.2314949,15.7897615 Z M13.1129643,17.2059992 C13.234203,17.014147 13.3073679,16.7945467 13.3259227,16.5667087 L17.22285,16.5667087 C17.2401397,16.7938964 17.3118287,17.0130631 17.4313805,17.2049153 L17.5475588,17.6766333 L12.9972077,17.6766333 L13.1129643,17.2059992 Z M5.65731289,12.4810155 L5.78677474,12.9878522 L5.26365622,13.3481441 L5.95924991,11.1376165 L6.20489005,11.6830404 L5.76716566,12.0962272 C5.66384925,12.1935624 5.62167928,12.3418414 5.65731289,12.4810155 Z M4.57502052,13.0359778 L3.81026802,10.5176196 L5.3676052,10.5176196 L4.57502052,13.0359778 Z M3.37043522,12.0962272 L2.93756045,11.6875928 L3.20871336,11.1196236 L3.87436639,13.3112911 L3.41555707,12.9765795 L3.48914371,12.4361416 C3.50622254,12.3095408 3.46194404,12.1825065 3.37043522,12.0962272 Z M5.56981018,26.195955 C5.21832349,26.1966054 4.93135683,25.9076348 4.92460963,25.5464757 L4.92460963,18.6755654 L4.16892369,18.6755654 L4.16892369,25.5464757 C4.17166473,25.7173 4.10777721,25.8820545 3.99159891,26.0041028 C3.87542068,26.1261512 3.71643985,26.1953047 3.55029015,26.1961718 C3.20892419,26.1903187 2.93292173,25.9082851 2.92554197,25.5573148 L2.67146789,17.3436559 L6.47498872,17.3436559 L6.20784192,25.5560141 C6.19476925,25.9100193 5.91412806,26.1914026 5.56981018,26.1961718 L5.56981018,26.195955 Z M8.37938475,12.0511365 C8.37875218,12.0641434 8.37875218,12.0773671 8.37938475,12.0903741 L8.37938475,17.4260331 C8.37938475,17.7477378 8.12573234,18.0087435 7.81262029,18.0087435 C7.49971909,18.0087435 7.24585584,17.7477378 7.24585584,17.4260331 L7.24585584,16.2476054 L7.25133791,16.0811167 L7.24585584,16.0811167 L7.24585584,13.8473934 L6.48995907,13.8473934 L6.48995907,16.2354656 L6.49986897,16.5667087 L2.64679847,16.5667087 L2.61917712,16.0416623 L2.60357426,16.0557532 L2.60357426,13.8473934 L1.84788832,13.8473934 L1.84788832,17.3998025 C1.84788832,17.724759 1.62312233,18.0096107 1.32139615,18.0096107 L1.31507068,18.0096107 C1.16853001,18.0074429 1.02873653,17.9447928 0.927106921,17.836185 C0.823790458,17.72671 0.766650183,17.5795149 0.768336982,17.4269003 L0.768336982,12.0903741 C0.767071856,12.0773671 0.765385057,12.0643602 0.762854859,12.0513533 C0.757583625,12.0079969 0.7546317,11.9644237 0.754210028,11.9206336 C0.7546317,11.5469012 0.900118138,11.1887771 1.15819838,10.9253868 C1.41627862,10.6619965 1.76565684,10.5152349 2.12916202,10.5176196 L2.66598582,10.5176196 L2.13464414,11.6182225 C2.06084666,11.7708372 2.09500431,11.9553188 2.21835153,12.069563 L2.71321619,12.5336936 L2.63541255,13.1044809 C2.61580352,13.2479908 2.67589572,13.3906334 2.79080894,13.4743113 L4.35004369,14.6113337 C4.35826685,14.6174036 4.36712252,14.6217392 4.3757674,14.626942 C4.38293627,14.6314945 4.38989436,14.6362636 4.39727406,14.6401658 C4.40802742,14.6458021 4.41962418,14.6503545 4.43101004,14.6549069 C4.43817897,14.6577251 4.445137,14.6611936 4.45251676,14.6635782 C4.46537859,14.667697 4.47845125,14.6709488 4.49173481,14.6735502 C4.49784949,14.6748509 4.50396413,14.6768019 4.51007876,14.6778858 C4.52947695,14.6811376 4.54908597,14.682655 4.56890589,14.682655 C4.58767151,14.682655 4.60664797,14.6811376 4.62541365,14.6781026 C4.63131745,14.6772355 4.63722124,14.6752844 4.64312504,14.6742005 C4.65577603,14.6718159 4.66842702,14.6685642 4.68086713,14.6648789 C4.68782521,14.6627111 4.69457241,14.6594594 4.70153044,14.656858 C4.71249463,14.6525223 4.72366966,14.6484034 4.73442302,14.6429839 C4.74159189,14.6392986 4.74854998,14.6347462 4.75571884,14.6306273 C4.76267693,14.6265085 4.7715326,14.6221728 4.77891236,14.61697 L6.43071022,13.4792973 C6.56438906,13.3871649 6.62680062,13.2180748 6.58589572,13.0578728 L6.44589141,12.5098476 L6.91924935,12.0630596 C7.03985553,11.9538013 7.07548915,11.7753896 7.00633039,11.6258099 L6.50176666,10.5176196 L7.00843886,10.5176196 C7.05440416,10.5176196 7.10184537,10.5078644 7.14781067,10.5126336 C7.51005072,10.5481858 7.84340435,10.7302828 8.07449581,11.0190367 C8.30558727,11.3077905 8.4152292,11.6791384 8.37938475,12.0513533 L8.37938475,12.0511365 Z M10.6974682,11.9204169 C10.6974682,11.986969 10.7002093,12.0424652 10.7002093,12.1092341 L10.7002093,15.646902 C10.484299,15.7409855 10.2909496,15.8329011 10.0790455,15.9213482 C10.0524785,15.9304531 10.025068,15.9376069 9.99744663,15.9428097 C9.96771681,15.938474 9.93819783,15.9311034 9.90973308,15.9209146 C9.64617077,15.8133907 9.40474768,15.7000137 9.13485985,15.5831681 L9.13485985,12.1090173 C9.23944138,10.9136806 8.38655362,9.8555669 7.22455997,9.73937167 C7.15329274,9.73200105 7.07949525,9.74045557 7.00843886,9.74045557 L6.04422242,9.74045557 C5.99150992,9.68495934 5.93352625,9.70642078 5.87385572,9.71032284 C5.83063151,9.71292422 5.78951577,9.68495934 5.75114112,9.74045557 L3.43326846,9.74045557 C3.39636977,9.68495934 3.35715167,9.71400812 3.31603593,9.71075643 C3.25510033,9.70598719 3.19564069,9.68495934 3.14166313,9.74045557 L2.63014131,9.74045557 C1.82553821,8.07556866 1.54679465,6.31508083 1.84641236,4.70937543 C2.06506366,3.52336027 2.57152508,2.52377776 3.31034302,1.82964135 C4.04051608,1.14352586 4.9969311,0.768492708 5.98602785,0.780198972 C7.19546271,0.780198972 8.4694176,1.28530135 9.77204813,2.28466709 C9.90488352,2.38612114 10.0864253,2.38720504 10.2201041,2.28705171 C11.5037581,1.32887455 12.8070212,0.82247145 13.988413,0.82247145 C15.0074504,0.82247145 15.9341356,1.18276341 16.6683149,1.86476003 C17.4088196,2.55239306 17.9213957,3.54568885 18.1501677,4.71176005 C18.4523156,6.31204585 18.1691442,8.07600225 17.3531552,9.74088916 L12.8359076,9.74088916 C11.6602087,9.73611993 10.7029503,10.7116396 10.6974682,11.9206336 L10.6974682,11.9204169 Z M12.065673,17.0538182 C12.0532329,17.0546853 12.0338347,17.065958 12.0222379,17.065958 C11.7101801,17.0566363 11.4605339,16.796281 11.4558952,16.4754434 L11.4558952,12.0903741 C11.4558952,12.0773671 11.4611665,12.0643602 11.4601122,12.0513533 C11.4565277,12.0077801 11.4552627,11.9642069 11.4563169,11.9206336 C11.4580037,11.5464677 11.6043335,11.1881267 11.8632571,10.9249532 C12.1219699,10.6617797 12.4719807,10.5152349 12.8359076,10.5176196 L17.7151845,10.5176196 C17.7611498,10.5176196 17.8079584,10.5078644 17.8539237,10.5126336 C18.2155312,10.5499201 18.5478306,10.7339682 18.7774461,11.0238059 C19.0068507,11.3136436 19.114595,11.6856418 19.0766421,12.0574232 C19.075377,12.0702133 19.0667321,12.0773671 19.0667321,12.0905908 L19.0667321,16.474793 C19.0701057,16.6287084 19.0117003,16.7769874 18.9052211,16.8849449 C18.8008504,16.9922521 18.6578942,17.0501329 18.5102993,17.0444965 C18.2159529,17.0336575 17.9871808,16.7678825 17.9871808,16.4518142 L17.9871808,12.6537909 C17.9840181,12.3659042 17.8431703,12.0981782 17.6106029,11.9377594 C17.3782464,11.7773407 17.0836891,11.7450401 16.8235004,11.8510466 L15.4789108,12.4021068 C15.3486055,12.455652 15.20333,12.455652 15.0730247,12.4021068 L13.72717,11.850613 C13.4699332,11.7450401 13.178117,11.7782078 12.9495557,11.9394937 C12.7212053,12.1007796 12.5860505,12.3687224 12.5894241,12.6535741 L12.5894241,16.4483457 C12.5894241,16.7631133 12.3551699,17.0353917 12.0658839,17.054035 L12.065673,17.0538182 Z M16.2896285,26.2230528 L14.2703192,26.2230528 C14.0765482,26.2156822 13.8983801,26.1122771 13.7923226,25.9455716 L16.767836,25.9455716 C16.6617785,26.1122771 16.4833995,26.215899 16.2896285,26.2230528 Z M19.1285111,24.9648492 C19.0235079,25.0986037 18.8636837,25.174044 18.6966906,25.1686244 L11.8537689,25.1686244 C11.6867758,25.1746943 11.5267408,25.0994709 11.4221592,24.9652828 C11.3175777,24.8313114 11.2808898,24.6544171 11.3230598,24.4881452 L12.8065995,18.4535805 L17.7387996,18.4535805 L19.2269781,24.4877117 C19.2689371,24.6537668 19.2324601,24.8306611 19.1285111,24.9648492 Z" id="Shape"></path>
                </g>
            </g>
        </g>
    </g>
</svg>