<?xml version="1.0" encoding="UTF-8"?>
<svg width="58px" height="58px" viewBox="0 0 58 58" version="1.1" xmlns="http://www.w3.org/2000/svg" xmlns:xlink="http://www.w3.org/1999/xlink">
    <!-- Generator: Sketch 52.4 (67378) - http://www.bohemiancoding.com/sketch -->
    <title>menu</title>
    <desc>Created with Sketch.</desc>
    <g id="Page-1" stroke="none" stroke-width="1" fill="none" fill-rule="evenodd">
        <g id="Artboard" transform="translate(-278.000000, -38.000000)">
            <g id="menu" transform="translate(279.000000, 39.000000)">
                <g id="Ring-Icon-Copy-3">
                    <circle id="Outer-Oval" stroke="#AFEBF9" cx="28" cy="28" r="28"></circle>
                    <circle id="Inner-Oval" fill="#FFFFFF" cx="28" cy="28" r="25"></circle>
                </g>
                <g transform="translate(18.000000, 15.000000)" fill="#081623">
                    <path d="M13.5651833,9.14028257 L13.5651833,15.544332 C13.5651833,15.7959728 13.7728327,16 14.0289413,16 C14.2850499,16 14.4926993,15.7959728 14.4926993,15.544332 L14.4926993,9.14006009 C15.3790024,8.95138504 16.0085178,8.17688289 15.9999129,7.28601622 L15.9999129,4.45566804 C15.9999129,4.20402719 15.7922634,4 15.5361548,4 C15.2800463,4 15.0723968,4.20402719 15.0723968,4.45566804 L15.0723968,7.28601622 C15.0794166,7.67360107 14.8516136,8.02825673 14.4926993,8.18912003 L14.4926993,4.45566804 C14.4926993,4.20402719 14.2850499,4 14.0289413,4 C13.7728327,4 13.5651833,4.20402719 13.5651833,4.45566804 L13.5651833,8.18934256 C13.2173648,8.03893645 12.927516,7.69073311 12.927516,7.28601622 L12.927516,4.45566804 C12.927516,4.20402719 12.7198666,4 12.463758,4 C12.2076494,4 12,4.20402719 12,4.45566804 L12,7.28601622 C12,8.19801979 12.695637,8.96139727 13.5651833,9.14028257 Z" id="Path"></path>
                    <path d="M6.58103413,9.38844188 L6.58103413,15.5495519 C6.58103413,15.79831 6.7684447,16 6.99959125,16 C7.2307378,16 7.41814838,15.79831 7.41814838,15.5495519 L7.41814838,9.38844188 C8.30758226,9.12560713 9,8.03159879 9,6.72468337 C9,5.22201653 8.1030043,4 7.00040875,4 C5.89760883,4 5,5.22223646 5,6.72446344 C5,8.03115892 5.69160025,9.1253872 6.58103413,9.38844188 Z M7.00061311,4.90089628 C7.63090127,4.90089628 8.16329453,5.73602887 8.16329453,6.72446344 C8.16329453,7.70981874 7.63417125,8.54275191 7.00633557,8.54781061 C7.00449622,8.54781061 7.00245251,8.54737075 7.00061311,8.54737075 C6.9985694,8.54737075 6.99673,8.54737075 6.99468629,8.54781061 C6.3668506,8.54275191 5.83793174,7.70981874 5.83793174,6.72446344 C5.8381361,5.73602887 6.37032494,4.90089628 7.00061311,4.90089628 Z" id="Shape" fill-rule="nonzero"></path>
                    <path d="M20,0.467532468 C20,0.209339474 19.7958957,0 19.5441595,0 L0.455840456,0 C0.20410433,0 0,0.209339474 0,0.467532468 L0,26.5324675 C0,26.7906605 0.20410433,27 0.455840456,27 L19.5441595,27 C19.7958957,27 20,26.7906605 20,26.5324675 L20,0.467532468 Z M0.911680912,0.935064935 L19.031339,0.935064935 L19.031339,26.0649351 L0.911680912,26.0649351 L0.911680912,0.935064935 Z" id="Shape" fill-rule="nonzero"></path>
                    <path d="M2.46766889,20 L7.53233111,20 C7.79059939,20 8,19.7761231 8,19.5 C8,19.2238769 7.79059939,19 7.53233111,19 L2.46766889,19 C2.20940056,19 2,19.2238769 2,19.5 C2,19.7761231 2.20940056,20 2.46766889,20 Z" id="Path"></path>
                    <path d="M17.5426019,21 L2.4573981,21 C2.20480177,21 2,21.2238769 2,21.5 C2,21.7761231 2.20480177,22 2.4573981,22 L17.5426019,22 C17.7951982,22 18,21.7761231 18,21.5 C18,21.2238769 17.7951982,21 17.5426019,21 Z" id="Path"></path>
                    <path d="M17.5426019,23 L2.4573981,23 C2.20480177,23 2,23.2238769 2,23.5 C2,23.7761231 2.20480177,24 2.4573981,24 L17.5426019,24 C17.7951982,24 18,23.7761231 18,23.5 C18,23.2238769 17.7951982,23 17.5426019,23 Z" id="Path"></path>
                </g>
            </g>
        </g>
    </g>
</svg>