<svg width="32" height="41" xmlns="http://www.w3.org/2000/svg"><g fill="none" fill-rule="evenodd"><path d="M20.677 13.728v9.978a.71.71 0 0 0 1.42 0v-9.979a2.927 2.927 0 0 0 2.308-2.888v-4.41a.71.71 0 0 0-1.42 0v4.41a1.517 1.517 0 0 1-.888 1.407V6.429a.71.71 0 0 0-1.42 0v5.817c-.532-.234-.976-.777-.976-1.407v-4.41a.71.71 0 0 0-1.42 0v4.41c0 1.42 1.065 2.61 2.396 2.889z" fill="#79CEE1"/><path d="M9.318 13.995v9.71a.71.71 0 0 0 1.42 0v-9.71c1.509-.414 2.683-2.139 2.683-4.198 0-2.369-1.521-4.295-3.391-4.295-1.871 0-3.394 1.927-3.394 4.294 0 2.06 1.174 3.784 2.682 4.199zm.712-7.073c1.069 0 1.972 1.316 1.972 2.874 0 1.553-.897 2.866-1.962 2.874h-.02c-1.065-.008-1.962-1.32-1.962-2.874 0-1.558.903-2.874 1.972-2.874z" fill="#79CEE1" fill-rule="nonzero"/><path d="M31.15.71a.71.71 0 0 0-.71-.71H.71A.71.71 0 0 0 0 .71v39.58c0 .392.318.71.71.71h29.73a.71.71 0 0 0 .71-.71V.71zm-29.73.71h28.22v38.16H1.42V1.42z" fill="#FFF" fill-rule="nonzero"/><path d="M3.823 30.262h7.688a.71.71 0 0 0 0-1.42H3.823a.71.71 0 0 0 0 1.42zM27.238 32.126H3.823a.71.71 0 0 0 0 1.42h23.415a.71.71 0 0 0 0-1.42zM27.238 35.41H3.823a.71.71 0 0 0 0 1.419h23.415a.71.71 0 0 0 0-1.42z" fill="#79CEE1"/></g></svg>