<?xml version="1.0" encoding="UTF-8"?>
<svg width="58px" height="58px" viewBox="0 0 58 58" version="1.1" xmlns="http://www.w3.org/2000/svg" xmlns:xlink="http://www.w3.org/1999/xlink">
    <!-- Generator: Sketch 52.4 (67378) - http://www.bohemiancoding.com/sketch -->
    <title>music</title>
    <desc>Created with Sketch.</desc>
    <g id="Page-1" stroke="none" stroke-width="1" fill="none" fill-rule="evenodd">
        <g id="Artboard" transform="translate(-454.000000, -38.000000)">
            <g id="music" transform="translate(455.000000, 39.000000)">
                <g id="Ring-Icon-Copy-5">
                    <g id="Group-5">
                        <circle id="Outer-Oval" stroke="#AFEBF9" cx="28" cy="28" r="28"></circle>
                        <circle id="Inner-Oval" fill="#FFFFFF" cx="28" cy="28" r="25"></circle>
                        <path d="M32.5459384,20.2984821 C33.3767354,19.2447383 33.6355323,18.0641316 33.4452157,17.0779355 C33.4452157,17.07688 33.4447956,17.0726583 33.4445855,17.0716029 C33.1944012,15.8259814 32.2888219,15.01942 31.1380998,15.01942 C30.6047512,15.01942 30.0373725,15.2020098 29.4825976,15.5519912 C28.9211006,15.1857561 28.3598137,15 27.8102904,15 C26.7593479,15 25.9195182,15.6693553 25.5951818,16.7332312 C24.4610546,16.4786609 23.30235,16.3505314 22.1402845,16.3505314 C21.9018636,16.3501092 21.7077659,16.5432534 21.7058754,16.7828366 L21.7058754,35.7903311 C20.557884,34.3838617 18.5793058,33.9920852 16.9864022,34.8556401 C15.3934985,35.719406 14.6328624,37.5963871 15.1723028,39.3325735 C15.7119532,41.0687599 17.4002252,42.1771751 19.1992001,41.976643 C20.9981749,41.7758997 22.4032827,40.3223581 22.5507466,38.5095473 C22.5623,38.4677522 22.5675515,38.4246905 22.5662912,38.3814178 L22.5662912,28.029525 C24.8786587,24.3916603 29.7224889,23.2878891 33.3895492,25.5777554 C35.7105293,27.0222202 37.1276106,29.5660236 37.1395842,32.3093037 L37.1395842,32.3107813 C37.1395842,32.549309 37.3183473,32.7684168 37.5557179,32.7684168 L37.5559279,32.7684168 C37.8010708,32.7572292 37.9953786,32.556697 38,32.3103591 L38,32.3363227 L37.9928578,32.3363227 C37.9985295,27.7200722 36.0115488,23.3284177 32.5459384,20.2984821 Z M27.8102904,15.8641881 C28.2468001,15.8641881 28.7347752,16.0569101 29.2212799,16.4218786 C29.3723148,16.535021 29.5788061,16.5362875 29.7313115,16.425256 C30.2182363,16.0699974 30.7045309,15.8823415 31.1378897,15.8823415 C31.871848,15.8823415 32.4322946,16.4016143 32.6007647,17.2375168 C32.860822,18.5891037 31.9938942,20.4120467 29.4777661,21.4632574 C26.961638,20.4333664 26.0955505,18.6028243 26.3568682,17.2341395 C26.5165157,16.3891602 27.0733913,15.8641881 27.8102904,15.8641881 Z M18.7836965,41.1350411 C17.1681062,41.1350411 15.8583668,39.8189168 15.8583668,38.1952395 C15.8583668,36.5717732 17.1681062,35.255649 18.7836965,35.255649 C20.3992869,35.255649 21.7092364,36.5717732 21.7092364,38.1952395 C21.7073458,39.8180725 20.3986567,41.1331414 18.7836965,41.1350411 Z M33.8479055,24.8435965 C31.8745788,23.6047299 29.4901598,23.2102092 27.2256865,23.7476354 C25.3882702,24.1786741 23.8031389,25.1688808 22.5662912,26.5829492 L22.5662912,17.2212632 C23.5371998,17.2493377 24.5032771,17.3721901 25.4506588,17.5877094 C25.3937319,19.2339729 26.4931987,21.2048875 29.2275817,22.2951493 C29.2349339,22.2981045 29.2437566,22.3006375 29.2511087,22.3033817 C29.3975223,22.3572087 29.55822,22.3572087 29.7048436,22.3033817 C29.7132461,22.3004264 29.7218587,22.2972601 29.7302612,22.2938827 C30.6541159,21.9179377 31.3901747,21.4436264 31.9586038,20.918232 C33.8180766,22.5416983 35.252173,24.5995805 36.1344353,26.9105555 C35.4992064,26.0917509 34.7251263,25.3919993 33.8479055,24.8435965 Z" id="Shape" fill="#081623" fill-rule="nonzero"></path>
                        <path d="M36.9619421,37.4504118 C36.8007859,36.5763866 36.2129574,36.0114223 35.4641735,36.0114223 C35.1250031,36.0202087 34.7938604,36.1263042 34.5036589,36.3187259 C34.2120527,36.1175179 33.8754912,36.0072488 33.5307014,36 C32.7764988,36 32.1902758,36.5713344 32.0373481,37.4548051 C31.8328424,38.6209775 32.4519789,40.1559583 34.2961428,40.9568369 C34.3031671,40.9599121 34.3101913,40.9627677 34.3174162,40.9654036 C34.4354235,41.0115321 34.5644687,41.0115321 34.682476,40.9654036 C34.6907044,40.9623284 34.6987321,40.9592531 34.7067598,40.9557386 C36.5491175,40.1386051 37.1672506,38.6082372 36.9625442,37.4537067 L36.9619421,37.4504118 Z M34.499043,40.0755628 C33.168652,39.457441 32.7074605,38.4070291 32.8447342,37.6232839 C32.923205,37.170346 33.1794894,36.8997254 33.5307014,36.8997254 C33.7492556,36.8997254 33.9995192,37.0095552 34.2541981,37.2175728 C34.3982954,37.3353103 34.5957768,37.3368479 34.7412789,37.2210873 C34.993148,37.0211971 35.2496332,36.9111477 35.4639728,36.9111477 C35.8141813,36.9111477 36.0726733,37.178693 36.1559608,37.6267984 C36.292231,38.3997803 35.8296346,39.44514 34.499043,40.0753432 L34.499043,40.0755628 Z" id="Shape" fill="#081623" fill-rule="nonzero"></path>
                        <path d="M29.2864638,36.9645675 C29.4244096,37.0118108 29.5754129,37.0118108 29.7133587,36.9645675 C29.7219934,36.9617885 29.7306282,36.958811 29.7388418,36.9556349 C32.3543362,35.9569748 33.2352939,34.1023771 32.9480297,32.7075083 L32.9473979,32.7045308 C32.7277376,31.6780805 31.9303898,31.0144906 30.9161197,31.0144906 C30.4599508,31.0144906 29.9764034,31.1576101 29.5038074,31.4305493 C29.0257357,31.1447074 28.5464004,31 28.076121,31 C27.0551115,31 26.2605016,31.6709344 26.0517928,32.7083023 C25.7649498,34.1176617 26.6469605,35.9778175 29.2639291,36.9566274 C29.2715109,36.9598035 29.278882,36.9621855 29.2864638,36.9645675 Z M26.8992644,32.8607513 C27.0292072,32.214828 27.4803216,31.8132599 28.0763317,31.8132599 C28.4349907,31.8132599 28.8380873,31.9635254 29.2422369,32.2477793 C29.3934508,32.354176 29.6006854,32.355367 29.7535841,32.2507568 C30.1524686,31.978016 30.5652529,31.8277505 30.9161197,31.8277505 C31.5102343,31.8277505 31.9642971,32.2247531 32.1016111,32.8639274 C32.3176911,33.9175723 31.594476,35.3396358 29.4991741,36.1693713 C27.4042934,35.3563099 26.6819208,33.9280929 26.8992644,32.8607513 Z" id="Shape" fill="#081623" fill-rule="nonzero"></path>
                    </g>
                </g>
                <g transform="translate(15.000000, 15.000000)"></g>
            </g>
        </g>
    </g>
</svg>