<svg width="36" height="41" xmlns="http://www.w3.org/2000/svg"><g fill-rule="nonzero" fill="none"><path d="M26.78 8.04c1.267-1.599 1.662-3.39 1.372-4.887l-.001-.01C27.769 1.254 26.388.03 24.634.03c-.814 0-1.679.278-2.525.809C21.253.282 20.397 0 19.56 0c-1.602 0-2.883 1.016-3.377 2.63a24.166 24.166 0 0 0-5.269-.58.661.661 0 0 0-.662.655v28.843a5.766 5.766 0 1 0 1.288 4.126.654.654 0 0 0 .024-.194V19.772c3.526-5.52 10.912-7.196 16.504-3.72a12.078 12.078 0 0 1 5.718 10.214v.002c0 .362.273.695.635.695a.71.71 0 0 0 .677-.695v.039h-.01A24.173 24.173 0 0 0 26.78 8.04zm-7.22-6.729c.665 0 1.409.293 2.15.847.231.171.546.173.778.005.743-.54 1.485-.824 2.145-.824 1.12 0 1.974.788 2.231 2.056.397 2.051-.925 4.817-4.762 6.413-3.837-1.563-5.157-4.34-4.759-6.418.243-1.282 1.093-2.079 2.216-2.079zM5.794 39.66a4.46 4.46 0 1 1 0-8.922 4.46 4.46 0 0 1 0 8.922zm22.97-24.722a13.292 13.292 0 0 0-10.097-1.663c-2.802.654-5.219 2.157-7.105 4.303V3.37c1.48.042 2.954.229 4.398.556-.087 2.498 1.59 5.489 5.76 7.143l.035.012a1.007 1.007 0 0 0 .73-.014c1.41-.57 2.532-1.29 3.399-2.087a22.923 22.923 0 0 1 6.367 9.093 13.389 13.389 0 0 0-3.486-3.137z" fill="#FFF"/><path d="M32.876 34.638c-.258-1.275-1.196-2.098-2.39-2.098a3.1 3.1 0 0 0-1.534.448 3.021 3.021 0 0 0-1.553-.465c-1.204 0-2.14.833-2.383 2.121-.327 1.7.662 3.94 3.605 5.107a.866.866 0 0 0 .655-.002c2.94-1.191 3.927-3.423 3.6-5.106v-.005zm-3.931 3.828c-2.124-.901-2.86-2.433-2.64-3.576.125-.66.534-1.055 1.094-1.055.349 0 .748.16 1.155.463.23.172.545.174.777.006.402-.292.812-.452 1.154-.452.559 0 .971.39 1.104 1.043.218 1.127-.52 2.652-2.644 3.57v.001zM21.565 33.12a.95.95 0 0 0 .688-.014c3.978-1.611 5.318-4.604 4.881-6.855l-.001-.005c-.334-1.656-1.547-2.727-3.09-2.727-.693 0-1.429.231-2.147.672-.728-.462-1.457-.695-2.172-.695-1.553 0-2.761 1.083-3.079 2.756-.436 2.275.906 5.276 4.886 6.856a.372.372 0 0 0 .034.013zm-3.63-6.622c.197-1.042.883-1.69 1.79-1.69.545 0 1.158.243 1.773.701.23.172.545.174.777.005.607-.44 1.235-.682 1.769-.682.903 0 1.594.64 1.803 1.672.328 1.7-.772 3.995-3.958 5.333-3.187-1.312-4.285-3.616-3.955-5.339z" fill="#79CEE1"/></g></svg>