<?xml version="1.0" encoding="UTF-8"?>
<svg width="15px" height="18px" viewBox="0 0 15 18" version="1.1" xmlns="http://www.w3.org/2000/svg" xmlns:xlink="http://www.w3.org/1999/xlink">
    <!-- Generator: Sketch 52.4 (67378) - http://www.bohemiancoding.com/sketch -->
    <title>pin</title>
    <desc>Created with Sketch.</desc>
    <g id="Symbols" stroke="none" stroke-width="1" fill="none" fill-rule="evenodd">
        <g id="Accomodation" transform="translate(0.000000, -1.000000)" fill-rule="nonzero">
            <g id="Accomo">
                <g id="pin" transform="translate(0.000000, 1.000000)">
                    <path d="M0,7.41579877 C0,8.72828911 0.391895762,10.1027217 1.16476669,11.5009892 C1.77562643,12.6061014 2.62535596,13.7297679 3.69031712,14.8405891 C5.4959405,16.7239757 7.27267284,17.9047317 7.34745787,17.9539715 C7.44048991,18.0153428 7.55951009,18.0153428 7.6524039,17.9539715 C7.72718897,17.9047317 9.5040595,16.7239757 11.3095447,14.8405891 C12.3745058,13.7297679 13.2240971,12.6062442 13.8350951,11.5009892 C14.607966,10.1027217 15,8.72828911 15,7.41579877 C15,3.3267548 11.6355024,0 7.49993087,0 C3.36449762,0 1.98997279e-15,3.3267548 0,7.41579877 Z M14.4337901,7.41579877 C14.4337901,8.62367239 14.0678825,9.89891172 13.3461585,11.2061213 C12.7611487,12.2657046 11.9432131,13.3475529 10.9150225,14.4211231 C9.86720242,15.5066823 8.7238621,16.4894801 7.49993087,17.3568141 C6.2761379,16.4894801 5.13293584,15.5066823 4.08497754,14.4211231 C3.05678687,13.3475529 2.23885136,12.2657046 1.65384155,11.2061213 C0.93197923,9.89876901 0.566209878,8.62367239 0.566209878,7.41579877 C0.566209878,3.64902572 3.67677009,0.584597697 7.49993087,0.584597697 C11.3230917,0.584597697 14.4337901,3.64902572 14.4337901,7.41579877 Z" id="Shape" fill="#FFFFFF"></path>
                    <path d="M2,7.49993155 C2,10.5326719 4.46719117,13 7.4999315,13 C10.5326719,13 13,10.5326719 13,7.49993155 C13,4.4671912 10.5326719,2 7.4999315,2 C4.46719117,2 2,4.4671912 2,7.49993155 Z M12.4391067,7.49993155 C12.4391067,10.2234685 10.2236054,12.4391067 7.4999315,12.4391067 C4.77639455,12.4391067 2.56089333,10.2233316 2.56089333,7.49993155 C2.56089333,4.77666847 4.77653148,2.56089332 7.4999315,2.56089332 C10.2233315,2.56089332 12.4391067,4.77653154 12.4391067,7.49993155 Z" id="Shape" fill="#FFFFFF"></path>
                    <path d="M4.05134437,5.94531981 C3.76369406,7.60256519 4.66214738,9.79597383 7.31756715,10.9607577 C7.32240839,10.9628387 7.32711515,10.9647711 7.33209086,10.9665548 C7.44034635,11.0111484 7.55962911,11.0111484 7.66801906,10.9665548 C7.67353272,10.9644738 7.67891188,10.9622441 7.68429103,10.9598658 C10.3389039,9.77115007 11.2365503,7.58457913 10.9484966,5.94472523 L10.9480932,5.94249554 C10.7346752,4.77340101 9.96532159,4.01783742 8.98806364,4.01783742 C8.51147053,4.01783742 8.00125772,4.20721143 7.5023411,4.56752741 C6.99737293,4.19086044 6.49415302,4 6.00397755,4 C5.02066806,3.99985136 4.25427298,4.76373908 4.05134437,5.94531981 Z M7.66183305,5.18529688 C8.11744746,4.81992695 8.57602039,4.62653955 8.98806364,4.62653955 C9.70201195,4.62653955 10.245979,5.17652681 10.408026,6.06170901 C10.7457025,7.98844814 9.19421974,9.61834284 7.49978599,10.3855007 C5.15326421,9.34721399 4.34813924,7.46670349 4.59248734,6.05933069 C4.74592772,5.16448655 5.28680172,4.60870212 6.00397755,4.60870212 C6.41938277,4.60870212 6.87970395,4.80729212 7.33531836,5.18291856 C7.43200864,5.26259239 7.56433585,5.26363292 7.66196752,5.18529688 L7.66183305,5.18529688 Z" id="Shape" fill="#75C8DB"></path>
                </g>
            </g>
        </g>
    </g>
</svg>