<?xml version="1.0" encoding="UTF-8"?>
<svg width="58px" height="58px" viewBox="0 0 58 58" version="1.1" xmlns="http://www.w3.org/2000/svg" xmlns:xlink="http://www.w3.org/1999/xlink">
    <!-- Generator: Sketch 52.4 (67378) - http://www.bohemiancoding.com/sketch -->
    <title>ring</title>
    <desc>Created with Sketch.</desc>
    <g id="Page-1" stroke="none" stroke-width="1" fill="none" fill-rule="evenodd">
        <g id="Artboard" transform="translate(-39.000000, -38.000000)">
            <g id="ring" transform="translate(40.000000, 39.000000)">
                <circle id="Outer-Oval" stroke="#AFEBF9" cx="28" cy="28" r="28"></circle>
                <circle id="Inner-Oval" fill="#FFFFFF" cx="28" cy="28" r="25"></circle>
                <g id="rings" transform="translate(11.000000, 15.000000)" fill="#081623">
                    <path d="M10.5,9 C5.80571821,9 2,12.5815878 2,17 C2,21.4184123 5.80571821,25 10.5002813,25 C15.194563,25 19.0002813,21.4178828 19,16.9997353 C18.9946557,12.5837057 15.1923127,9.00502996 10.5,9 Z M14.3259704,17 C14.3211886,15.3083491 14.8401502,13.6521725 15.8195671,12.2339919 C16.020401,12.4322777 16.2082961,12.6414177 16.3826897,12.8606175 C14.7478904,15.4055065 14.7478904,18.5942288 16.3826897,21.1391178 C16.2082961,21.3583176 16.0201198,21.5677223 15.8195671,21.7660081 C14.8398689,20.3475628 14.3209074,18.6913862 14.3259704,16.9997353 L14.3259704,17 Z M16.3087131,17 C16.3075879,15.930739 16.5705847,14.876303 17.0771699,13.9192892 C18.1046858,15.8592607 18.1046858,18.1407393 17.0771699,20.0804461 C16.5705847,19.123697 16.3073066,18.0689964 16.3087131,16.9997353 L16.3087131,17 Z M3.1524041,17 C3.15071645,14.3706608 4.73432275,11.9684636 7.23771465,10.8017804 C9.74110655,9.63536186 12.7311129,9.90671437 14.9515371,11.5020021 C12.5814719,14.8278567 12.5814719,19.1721433 14.9515371,22.4979979 C12.7311129,24.0935504 9.74082529,24.3649029 7.23743339,23.1982196 C4.73376023,22.0315365 3.15015386,19.6290744 3.15212283,16.9997353 L3.1524041,17 Z" id="Shape" fill-rule="nonzero"></path>
                    <path d="M21,3.5 C21,3.22387694 20.7850781,3 20.52,3 L18.48,3 C18.2149219,3 18,3.22387694 18,3.5 C18,3.77636719 18.2149219,4 18.48,4 L20.52,4 C20.7850781,4 21,3.77636719 21,3.5 Z" id="Path"></path>
                    <path d="M16.5595835,2 C16.6641993,2 16.7666299,1.97429136 16.8554031,1.92596864 L18.7371214,0.901193862 C18.9990706,0.758368108 19.0785567,0.457481852 18.9149409,0.229198672 C18.7510519,0.000915492668 18.4060657,-0.0685929802 18.1441165,0.0742327742 L16.2626713,1.09924558 C16.0512546,1.21469638 15.9529213,1.43798067 16.0217546,1.64698233 C16.090588,1.85598405 16.309926,2 16.5595835,2 Z" id="Path"></path>
                    <path d="M16.262947,5.90097231 L18.1442881,6.9257659 C18.4061847,7.06859427 18.7511018,6.9990844 18.9149579,6.7707971 C19.078541,6.54250975 18.9990707,6.24161798 18.7371741,6.09902765 L16.855833,5.07423412 C16.5939363,4.93140575 16.2487461,5.00091555 16.0851632,5.22920291 C15.9213071,5.45749027 16.0010503,5.75838203 16.262947,5.90097231 Z" id="Path"></path>
                    <path d="M1.48,4 L3.52,4 C3.78507808,4 4,3.77636719 4,3.5 C4,3.22387694 3.78507808,3 3.52,3 L1.48,3 C1.21492186,3 1,3.22387694 1,3.5 C1,3.77636719 1.21492186,4 1.48,4 Z" id="Path"></path>
                    <path d="M2.26283654,0.900972329 L4.14425356,1.92576588 C4.40616081,2.06859425 4.75109183,1.99908444 4.91495455,1.77079714 C5.0785441,1.54250978 4.99907074,1.24185604 4.73716349,1.09902767 L2.85574647,0.0742341198 C2.59383922,-0.0685942518 2.2489082,0.000915555709 2.08504549,0.229202857 C1.92145586,0.45749022 2.00092929,0.758381989 2.26283654,0.900972329 Z" id="Path"></path>
                    <path d="M4.14425356,5.07423412 L2.26283654,6.09902765 C2.00092929,6.24161798 1.92145586,6.54250975 2.08504549,6.7707971 C2.2489082,6.9990844 2.59383922,7.06859427 2.85574647,6.9257659 L4.73716349,5.90097231 C4.99907074,5.75838203 5.0785441,5.45749027 4.91495455,5.22920291 C4.75109183,5.00091555 4.40616081,4.93140575 4.14425356,5.07423412 Z" id="Path"></path>
                    <path d="M23.5546744,6.97470154 C21.1678441,6.97335823 18.8524842,7.75705713 16.9956557,9.19442063 C15.4572209,8.00100592 13.5953474,7.2533083 11.6286508,7.0391814 L15.027838,4.14108057 C15.2344014,3.96483563 15.280647,3.67225823 15.1374259,3.44523542 L13.7500598,1.25560693 C13.6449563,1.09333269 13.4582924,0.996344191 13.2587359,1.00010555 L7.63135464,1.00010555 C7.4320784,0.996344191 7.24541462,1.09333269 7.14031111,1.25560693 L5.752945,3.45034009 C5.60972395,3.67628824 5.65596947,3.96832827 5.86253286,4.14349855 L9.26172006,7.04052478 C4.05755548,7.60579818 0,11.8504533 0,16.9876173 C0,22.5087049 4.68565403,26.9999956 10.4450453,26.9999956 C12.8299137,27.0021449 15.1427512,26.2181774 16.995936,24.7797392 C18.8530447,26.2173714 21.1681244,27.0008016 23.5549547,26.9997269 C29.314346,26.9997269 34,22.5078989 34,16.9870799 C34,11.4662609 29.3140658,6.97470154 23.5546744,6.97470154 Z M10.4450453,6.59695708 L7.75299446,4.3014742 L13.1373764,4.3014742 L10.4450453,6.59695708 Z M7.95507343,2.10056177 L12.9352975,2.10056177 L13.62842,3.20101798 L7.26195093,3.20101798 L7.95507343,2.10056177 Z M1.14801045,16.9870799 C1.14801045,12.0651175 5.31066945,8.07515775 10.4453256,8.07515775 C15.5799817,8.07515775 19.7423604,12.0651175 19.7423604,16.9870799 C19.7423604,21.9090423 15.5799817,25.8992707 10.4450453,25.8992707 C5.31291166,25.8936288 1.15361597,21.9066243 1.14801045,16.9870799 Z M19.114262,11.4084977 C22.1283499,9.20301794 26.399756,9.56813515 28.9589561,12.2499598 C31.5181562,14.9315158 31.5181562,19.042644 28.9589561,21.7242 C26.399756,24.4060247 22.1283499,24.7711419 19.114262,22.5656622 C21.4820335,19.1928284 21.4820335,14.7813315 19.114262,11.4084977 Z M23.5543942,25.8992707 C21.4924037,25.9000767 19.488991,25.2431882 17.8594663,24.0320415 C18.0545384,23.843438 18.2414825,23.6475804 18.4202986,23.4447375 C21.9074924,25.9919605 26.8465159,25.5671995 29.8051093,22.4654497 C32.7634223,19.3636999 32.7634223,14.6104599 29.8051093,11.5087101 C26.8465159,8.40696037 21.9074924,7.98219933 18.4202986,10.529691 C18.2414825,10.3268481 18.0545384,10.1309905 17.8594663,9.94238696 C21.0714292,7.55663228 25.5272569,7.44647915 28.8631017,9.67022818 C32.1986662,11.8942459 33.6415271,15.9368643 32.4256898,19.653322 C31.2101328,23.3697797 27.6175552,25.8990021 23.5541139,25.8990021 L23.5543942,25.8992707 Z" id="Shape" fill-rule="nonzero"></path>
                </g>
            </g>
        </g>
    </g>
</svg>