<svg width="50" height="42" xmlns="http://www.w3.org/2000/svg"><g fill="none" fill-rule="evenodd"><path d="M15.302 13.167c-6.878 0-12.455 5.577-12.455 12.456s5.577 12.455 12.456 12.455 12.455-5.577 12.455-12.456c-.008-6.875-5.58-12.447-12.456-12.455zm5.607 12.456a13.55 13.55 0 0 1 2.189-7.42c.294.308.57.634.825.975a12.456 12.456 0 0 0 0 12.89c-.256.34-.532.666-.825.975a13.545 13.545 0 0 1-2.19-7.42zm2.905 0a10.731 10.731 0 0 1 1.126-4.797 10.75 10.75 0 0 1 0 9.593 10.724 10.724 0 0 1-1.126-4.797zm-19.278 0a10.761 10.761 0 0 1 17.29-8.56 15.368 15.368 0 0 0 0 17.12 10.76 10.76 0 0 1-17.29-8.56z" fill="#79CEE1" fill-rule="nonzero"/><path d="M30.96 5.516c0-.491-.382-.89-.853-.89h-3.63c-.472 0-.854.399-.854.89 0 .492.382.89.854.89h3.63c.471 0 .854-.398.854-.89zM24.673 3.559a.801.801 0 0 0 .439-.132l2.79-1.823a.892.892 0 0 0 .264-1.196.808.808 0 0 0-1.143-.276l-2.79 1.824a.887.887 0 0 0-.357.975.836.836 0 0 0 .797.628zM24.233 8.72l2.79 1.824c.388.254.9.13 1.143-.276a.891.891 0 0 0-.264-1.195l-2.79-1.823a.808.808 0 0 0-1.142.275.89.89 0 0 0 .263 1.196zM1.388 6.406h3.63c.471 0 .854-.398.854-.89 0-.491-.383-.89-.854-.89h-3.63c-.472 0-.854.399-.854.89 0 .492.382.89.854.89zM3.593 1.603l2.79 1.824c.388.254.9.13 1.142-.276a.891.891 0 0 0-.263-1.195L4.472.132a.808.808 0 0 0-1.143.276.891.891 0 0 0 .264 1.195zM6.382 7.25l-2.79 1.823a.891.891 0 0 0-.263 1.195.808.808 0 0 0 1.143.276l2.79-1.823a.891.891 0 0 0 .263-1.196.808.808 0 0 0-1.143-.275z" fill="#79CEE1"/><path d="M34.64 10.268a15.304 15.304 0 0 0-9.646 3.418 15.26 15.26 0 0 0-7.893-3.32L22.1 5.905a.85.85 0 0 0 .16-1.071L20.22 1.46a.83.83 0 0 0-.722-.393h-8.275a.83.83 0 0 0-.723.393l-2.04 3.38a.844.844 0 0 0 .161 1.067l5 4.461C5.966 11.239 0 17.775 0 25.686c0 8.501 6.89 15.417 15.36 15.417a15.25 15.25 0 0 0 9.634-3.419 15.305 15.305 0 0 0 9.646 3.419c8.47 0 15.36-6.917 15.36-15.418s-6.891-15.417-15.36-15.417zm-19.28-.582l-3.959-3.535h7.919l-3.96 3.535zM11.7 2.762h7.323l1.02 1.695h-9.363l1.02-1.695zM1.689 25.685c0-7.579 6.12-13.723 13.672-13.723 7.55 0 13.672 6.144 13.672 13.723 0 7.579-6.121 13.723-13.673 13.723C7.813 39.4 1.696 33.26 1.688 25.685zm26.42-8.59a10.738 10.738 0 0 1 14.478 1.296 10.836 10.836 0 0 1 0 14.588 10.738 10.738 0 0 1-14.478 1.296 15.433 15.433 0 0 0 0-17.18zm6.53 22.313a13.626 13.626 0 0 1-8.375-2.875 15.4 15.4 0 0 0 .825-.904A12.423 12.423 0 0 0 43.83 34.12c4.35-4.776 4.35-12.096 0-16.872a12.423 12.423 0 0 0-16.742-1.507 15.4 15.4 0 0 0-.825-.905 13.633 13.633 0 0 1 16.182-.419c4.905 3.425 7.027 9.65 5.239 15.373-1.788 5.722-7.07 9.617-13.047 9.617z" fill="#FFF" fill-rule="nonzero"/></g></svg>