<svg width="38" height="41" xmlns="http://www.w3.org/2000/svg"><g fill="none" fill-rule="evenodd"><path d="M30.611 0H6.426c-.38 0-.655.323-.655.704v14.573L.434 17.678a.716.716 0 0 0-.434.628v19.406A3.31 3.31 0 0 0 3.296 41h30.445a3.31 3.31 0 0 0 3.297-3.288V18.306a.716.716 0 0 0-.434-.628l-5.337-2.4V.703c0-.381-.275-.704-.656-.704zm4.946 38.291L23.745 28.243l11.915-8.59v18.06a1.897 1.897 0 0 1-.103.578zM29.89 1.378v20.698L19.61 29.502a1.854 1.854 0 0 1-2.191 0l-10.27-7.426V1.378h22.74zM1.48 38.291a1.886 1.886 0 0 1-.103-.579v-18.06l11.919 8.594L1.48 38.291zm4.29-17.21l-3.657-2.637 3.657-1.654v4.291zm-2.475 18.54a1.892 1.892 0 0 1-.933-.253L14.465 29.08l2.14 1.541a3.27 3.27 0 0 0 3.829 0l2.143-1.547 12.098 10.294a1.892 1.892 0 0 1-.934.254H3.296zm31.627-21.177l-3.656 2.637v-4.29l3.656 1.653z" fill="#FFF" fill-rule="nonzero"/><path d="M10.816 15.074h7.653a.69.69 0 0 0 0-1.379h-7.653a.69.69 0 0 0 0 1.379zM10.127 17.227c0 .38.309.689.69.689h15.405a.69.69 0 0 0 0-1.378H10.816a.69.69 0 0 0-.689.689zM26.222 19.294H10.816a.69.69 0 0 0 0 1.378h15.406a.69.69 0 0 0 0-1.378zM26.222 22.137H10.816a.69.69 0 0 0 0 1.378h15.406a.69.69 0 0 0 0-1.378z" fill="#79CEE1"/><path d="M14.534 12.146a.98.98 0 0 0 .746-.002c3.979-1.612 5.318-4.61 4.88-6.865v-.005c-.336-1.666-1.558-2.743-3.111-2.743-.692 0-1.423.227-2.139.662-.723-.456-1.449-.686-2.162-.686-1.564 0-2.781 1.09-3.1 2.774-.438 2.279.903 5.285 4.886 6.865zM11 5.54c.193-1.02.863-1.654 1.747-1.654.535 0 1.138.239 1.744.69.242.181.573.184.817.006.598-.433 1.215-.672 1.74-.672.881 0 1.555.626 1.76 1.635.323 1.676-.763 3.939-3.906 5.265-3.143-1.3-4.228-3.572-3.902-5.27z" fill="#79CEE1" fill-rule="nonzero"/></g></svg>