<?xml version="1.0" encoding="UTF-8"?>
<svg width="58px" height="58px" viewBox="0 0 58 58" version="1.1" xmlns="http://www.w3.org/2000/svg" xmlns:xlink="http://www.w3.org/1999/xlink">
    <!-- Generator: Sketch 52.4 (67378) - http://www.bohemiancoding.com/sketch -->
    <title>speeches</title>
    <desc>Created with Sketch.</desc>
    <g id="Page-1" stroke="none" stroke-width="1" fill="none" fill-rule="evenodd">
        <g id="Artboard" transform="translate(-197.000000, -38.000000)">
            <g id="speeches" transform="translate(198.000000, 39.000000)">
                <g id="Ring-Icon-Copy-2">
                    <circle id="Outer-Oval" stroke="#AFEBF9" cx="28" cy="28" r="28"></circle>
                    <circle id="Inner-Oval" fill="#FFFFFF" cx="28" cy="28" r="25"></circle>
                </g>
                <g transform="translate(16.000000, 15.000000)" fill="#081623">
                    <path d="M19.8357558,0 L4.16424419,0 C3.91765987,0 3.73953488,0.212710084 3.73953488,0.463309166 L3.73953488,10.0607439 L0.281031963,11.6418888 C0.116860465,11.7132353 0.00763082791,11.8740973 0,12.055344 L0,24.8350102 C0.00763082791,26.0297318 0.960392428,26.995347 2.13597382,27 L21.8640262,27 C23.0396076,26.995347 23.9923692,26.0297318 24,24.8350102 L24,12.055344 C23.9923692,11.8740973 23.8831395,11.7132353 23.718968,11.6418888 L20.2604651,10.0607439 L20.2604651,0.463309166 C20.2604651,0.212710084 20.0823401,1.61215579e-15 19.8357558,0 Z M23.0406977,25.2163373 L15.3863372,18.5992811 L23.1069767,12.9420791 L23.1069767,24.8350102 C23.1045785,24.964852 23.0821221,25.0933643 23.0406977,25.2163373 Z M19.3674419,0.907563025 L19.3674419,14.5376264 L12.7072674,19.4281857 C12.2847383,19.743041 11.709811,19.743041 11.2870639,19.4281857 L4.63255814,14.5376264 L4.63255814,0.907563025 L19.3674419,0.907563025 Z M0.959520335,25.2163373 C0.917877879,25.0935859 0.895421526,24.964852 0.893023256,24.8350102 L0.893023256,12.9420791 L8.61606106,18.6012753 L0.959520335,25.2163373 Z M3.73953488,13.8828782 L1.37005814,12.1457458 L3.73953488,11.0569361 L3.73953488,13.8828782 Z M2.13597382,26.092437 C1.92340119,26.0908859 1.7149709,26.033277 1.53095933,25.9251493 L9.37325581,19.1505548 L10.7592296,20.1653591 C11.5000727,20.7088777 12.5001454,20.7086561 13.2407704,20.1644728 L14.6293605,19.1463449 L22.4690407,25.9251493 C22.2850291,26.033277 22.0765988,26.0908859 21.8640262,26.092437 L2.13597382,26.092437 Z M22.6299419,12.1457458 L20.2604651,13.8828782 L20.2604651,11.0569361 L22.6299419,12.1457458 Z" id="Shape" fill-rule="nonzero"></path>
                    <path d="M7.45779003,10 L12.54221,10 C12.7950227,10 13,9.77612306 13,9.5 C13,9.22387694 12.7950227,9 12.54221,9 L7.45779003,9 C7.20497726,9 7,9.22387694 7,9.5 C7,9.77612306 7.20497726,10 7.45779003,10 Z" id="Path"></path>
                    <path d="M7,11.5 C7,11.7761231 7.20221722,12 7.45162584,12 L17.5483742,12 C17.7977828,12 18,11.7761231 18,11.5 C18,11.2238769 17.7977828,11 17.5483742,11 L7.45162584,11 C7.20221722,11 7,11.2238769 7,11.5 Z" id="Path"></path>
                    <path d="M17.5483742,13 L7.45162584,13 C7.20221722,13 7,13.2238769 7,13.5 C7,13.7761231 7.20221722,14 7.45162584,14 L17.5483742,14 C17.7977828,14 18,13.7761231 18,13.5 C18,13.2238769 17.7977828,13 17.5483742,13 Z" id="Path"></path>
                    <path d="M17.5483742,15 L7.45162584,15 C7.20221722,15 7,15.2238769 7,15.5 C7,15.7761231 7.20221722,16 7.45162584,16 L17.5483742,16 C17.7977828,16 18,15.7761231 18,15.5 C18,15.2238769 17.7977828,15 17.5483742,15 Z" id="Path"></path>
                    <path d="M9.25694407,7.95556402 C9.26466866,7.95847442 9.27283463,7.961177 9.28077992,7.96367165 C9.42247078,8.01210945 9.57762453,8.01210945 9.71931539,7.96367165 C9.72836423,7.96096913 9.73741301,7.9578508 9.7462411,7.95431672 C12.3564875,6.95832721 13.2351034,5.10625652 12.9479697,3.71278597 L12.9473076,3.70966764 C12.7270467,2.68000036 11.9256766,2.01455211 10.9066939,2.01455211 C10.4531507,2.01455211 9.97334378,2.15508418 9.50413067,2.42346703 C9.02939996,2.14219512 8.55356575,2 8.08589752,2 C7.05985243,2 6.26157215,2.67314003 6.05190491,3.71361752 C5.76499189,5.12164023 6.64493207,6.97932384 9.25694407,7.95556402 Z M6.93979037,3.87327519 C7.06669422,3.24295999 7.50589181,2.85129974 8.08589752,2.85129974 C8.43681424,2.85129974 8.83253349,2.99889991 9.22979767,3.27809298 C9.38826196,3.38952073 9.60543305,3.39097596 9.76544222,3.28141918 C10.1576302,3.01345207 10.5628397,2.86585185 10.9069146,2.86585185 C11.484934,2.86585185 11.9270007,3.25293859 12.0611877,3.87639352 C12.2735034,4.91188165 11.5608556,6.30971789 9.49927519,7.12921079 C7.43769481,6.32614102 6.72615052,4.92227601 6.93979037,3.87327519 Z" id="Shape" fill-rule="nonzero"></path>
                </g>
            </g>
        </g>
    </g>
</svg>